<?xml version="1.0" standalone="no"?>
<!DOCTYPE svg PUBLIC "-//W3C//DTD SVG 20010904//EN"
 "http://www.w3.org/TR/2001/REC-SVG-20010904/DTD/svg10.dtd">
<svg version="1.0" xmlns="http://www.w3.org/2000/svg"
 width="4096.000000pt" height="4096.000000pt" viewBox="0 0 4096.000000 4096.000000"
 preserveAspectRatio="xMidYMid meet">

<g transform="translate(0.000000,4096.000000) scale(0.100000,-0.100000)"
fill="#000000" stroke="none">
<path d="M22805 34533 c-626 -37 -993 -83 -1540 -194 -409 -83 -1058 -261
-1345 -369 -41 -16 -147 -54 -235 -85 -267 -95 -519 -200 -896 -373 -416 -191
-1093 -564 -1479 -815 -1371 -891 -2446 -1872 -3472 -3167 -142 -179 -439
-600 -656 -930 -164 -248 -286 -444 -649 -1038 -114 -187 -169 -294 -188 -369
-20 -77 -19 -224 2 -298 9 -33 16 -71 16 -85 0 -15 -41 -88 -98 -174 -54 -83
-129 -202 -167 -265 -71 -120 -358 -682 -401 -786 -13 -33 -84 -197 -157 -365
-72 -168 -145 -341 -162 -385 -17 -44 -39 -102 -49 -130 -56 -145 -248 -876
-284 -1080 -56 -314 -91 -643 -105 -975 -5 -135 -12 -290 -14 -345 -2 -55 0
-239 5 -410 8 -286 13 -384 39 -735 43 -582 33 -1047 -31 -1395 -39 -210 -112
-430 -206 -618 -65 -131 -270 -427 -343 -497 -3 -3 -54 -61 -114 -130 -60 -69
-124 -141 -141 -161 -18 -20 -80 -94 -137 -165 -279 -347 -475 -727 -612
-1184 -167 -556 -219 -1061 -172 -1675 26 -338 49 -497 133 -927 26 -131 44
-240 41 -244 -4 -3 -17 1 -30 9 -55 36 -421 138 -513 144 -65 4 -69 3 -50 -12
11 -8 51 -25 90 -36 38 -11 117 -35 175 -53 58 -18 138 -43 178 -55 91 -28
156 -56 171 -75 7 -8 30 -75 51 -148 37 -128 122 -379 197 -578 20 -52 59
-142 88 -200 29 -58 69 -145 90 -195 40 -99 187 -388 344 -677 55 -103 101
-192 101 -197 0 -14 -27 -14 -35 -1 -9 14 -135 77 -260 130 -55 23 -243 109
-418 191 -176 82 -320 149 -322 149 -10 0 -822 404 -890 442 -121 68 -460 252
-835 453 -395 212 -544 305 -776 487 -224 175 -571 484 -749 664 -49 51 -148
145 -219 211 -246 225 -670 762 -788 998 -33 68 -90 171 -98 178 -11 12 119
-341 154 -416 52 -114 21 -119 -62 -9 -33 42 -101 125 -153 183 -195 220 -457
542 -502 617 -82 136 -135 262 -110 262 3 0 31 -19 61 -42 126 -94 318 -112
522 -46 246 79 427 247 484 449 14 51 38 285 50 484 14 225 28 421 41 555 8
80 15 179 17 220 2 70 1 75 -17 72 -11 -2 -47 -29 -80 -61 -79 -76 -171 -146
-217 -166 -21 -8 -78 -18 -128 -22 -81 -5 -91 -8 -95 -27 -7 -34 -23 -214 -42
-463 l-17 -233 -35 -6 c-61 -9 -182 -53 -281 -102 -120 -58 -243 -174 -287
-268 -26 -54 -28 -68 -28 -179 1 -141 15 -215 86 -440 63 -201 82 -257 131
-375 160 -389 282 -621 520 -985 36 -55 99 -157 141 -226 176 -292 438 -648
646 -879 102 -112 161 -183 161 -192 0 -32 -66 27 -305 271 -298 306 -624 630
-775 771 -497 467 -1090 1253 -1361 1805 -65 133 -132 318 -195 540 -16 55
-30 92 -32 83 -3 -15 106 -464 193 -798 143 -543 319 -955 615 -1440 167 -274
308 -460 535 -708 55 -60 150 -165 212 -233 105 -117 278 -289 368 -369 22
-20 103 -92 181 -160 268 -238 493 -417 824 -655 259 -186 266 -193 349 -376
186 -405 253 -519 456 -774 149 -188 588 -604 866 -821 195 -152 415 -303 587
-404 52 -30 101 -60 110 -65 328 -199 839 -416 1427 -608 264 -86 643 -201
830 -252 492 -134 548 -152 559 -181 7 -20 -14 -18 -157 10 -67 14 -133 27
-147 29 -53 10 -412 87 -472 101 -35 9 -182 43 -328 77 -225 52 -490 123 -770
207 -424 126 -990 351 -1395 554 -265 133 -677 379 -961 573 -235 161 -621
466 -779 615 -434 410 -755 810 -925 1154 -39 77 -70 134 -70 126 2 -57 137
-496 211 -682 57 -143 212 -449 290 -573 184 -290 381 -555 629 -847 216 -254
768 -785 1095 -1054 361 -296 600 -475 940 -702 667 -447 1399 -844 2005
-1089 47 -19 99 -41 115 -48 211 -95 822 -316 1200 -433 496 -153 1038 -284
1550 -372 521 -90 747 -120 1225 -161 615 -52 847 -59 2295 -69 845 -6 1382
-15 1685 -26 560 -22 2121 -26 2468 -6 507 28 1001 73 1397 128 99 13 201 27
226 30 l46 6 27 -45 c108 -185 419 -188 611 -6 57 54 127 155 138 199 6 25 12
27 334 84 631 112 1133 217 1653 346 134 34 272 73 540 155 30 10 116 39 190
65 74 26 212 75 305 108 424 149 527 186 625 222 383 142 468 173 495 185 66
29 355 139 615 235 757 280 1211 469 1770 737 74 36 175 83 223 104 48 21 168
80 267 130 98 50 184 89 189 88 11 -4 -33 -62 -44 -59 -4 1 -17 -7 -30 -18
-12 -11 -44 -32 -71 -48 -27 -16 -51 -32 -52 -36 -2 -5 -7 -6 -12 -3 -12 8
-130 -65 -130 -81 0 -7 5 -16 12 -20 6 -4 8 -3 5 3 -3 5 1 10 10 10 9 0 -4
-19 -35 -48 -28 -26 -48 -49 -45 -52 2 -3 -5 -8 -16 -12 -21 -6 -28 -29 -12
-39 5 -3 14 1 21 9 7 8 9 15 5 15 -4 0 5 10 21 23 16 12 31 22 34 22 14 0 69
48 64 56 -3 5 -1 8 4 7 6 -2 10 1 10 5 1 10 71 67 83 67 5 0 9 7 9 15 0 8 4
15 9 15 11 0 101 74 176 144 71 68 211 158 435 281 427 235 716 402 865 499
167 109 470 314 525 357 36 27 116 89 179 137 117 89 357 289 444 370 32 29
52 41 58 35 12 -12 20 -97 49 -488 37 -499 105 -1258 120 -1329 14 -64 4 -74
-53 -58 -119 35 -372 34 -549 -3 -532 -112 -1002 -505 -1046 -876 -28 -235
111 -414 378 -486 91 -25 434 -25 566 0 328 60 650 238 826 456 118 147 178
297 178 451 0 181 -36 576 -126 1375 -35 319 -71 643 -79 720 -8 77 -17 168
-21 201 l-7 62 38 12 c121 40 941 461 1620 833 310 169 435 289 499 480 31 94
19 320 -54 1002 -11 105 -26 259 -32 343 l-12 152 31 28 c46 40 236 245 313
337 146 176 347 463 440 630 39 71 121 257 116 263 -2 2 -18 -16 -36 -40 -236
-323 -280 -370 -760 -808 -51 -47 -96 -86 -101 -88 -4 -2 -10 34 -13 80 -18
264 -26 432 -26 580 0 153 2 168 19 177 10 6 38 43 61 83 24 40 63 105 86 143
24 39 62 104 86 145 23 41 53 91 66 110 38 57 95 161 90 166 -3 2 -18 -15 -33
-38 -16 -24 -48 -66 -72 -94 -23 -28 -43 -54 -43 -58 0 -3 -8 -15 -17 -25 -45
-48 -63 -74 -57 -82 3 -5 10 -7 15 -4 5 4 9 2 9 -3 0 -17 -13 -22 -28 -9 -13
10 -14 9 -2 -9 11 -18 9 -26 -16 -65 -15 -24 -37 -54 -48 -67 -12 -13 -37 -56
-56 -95 -20 -41 -42 -72 -50 -72 -19 0 -26 95 -35 415 -8 330 -43 960 -64
1155 -11 94 -17 173 -14 178 2 4 -4 7 -15 7 -11 0 -59 -41 -114 -98 -105 -108
-173 -213 -230 -357 -64 -159 -72 -201 -64 -333 11 -192 33 -449 40 -460 3 -5
21 -152 41 -325 47 -423 47 -458 11 -428 -12 10 -16 8 -21 -8 -8 -26 -43 -47
-57 -33 -6 6 4 21 26 40 37 32 46 53 24 51 -28 -1 -50 -18 -156 -117 -61 -56
-157 -141 -214 -188 -92 -76 -160 -128 -403 -310 -102 -76 -382 -262 -437
-290 -26 -13 -75 -42 -108 -63 -73 -48 -143 -76 -166 -67 -35 13 13 129 100
241 47 59 84 125 72 125 -2 0 -44 -49 -94 -108 -50 -60 -117 -135 -149 -169
-90 -92 -454 -415 -543 -481 -19 -15 -55 -44 -81 -67 -100 -89 -247 -202 -521
-401 -84 -60 -209 -152 -278 -203 -269 -199 -799 -527 -1278 -790 -295 -161
-795 -404 -1197 -581 -115 -51 -237 -106 -270 -122 -33 -16 -96 -45 -140 -63
-127 -54 -323 -147 -418 -199 -48 -27 -91 -46 -94 -43 -3 3 16 43 43 89 43 75
197 371 265 509 15 30 33 60 41 66 7 6 69 13 138 16 138 6 220 27 330 82 133
67 214 144 326 311 71 106 256 471 343 674 159 372 241 578 272 680 12 41 24
78 26 82 2 4 32 -10 66 -32 240 -157 463 -208 713 -165 372 64 667 256 814
527 46 86 80 206 82 293 6 202 -42 1152 -67 1340 -8 61 -19 209 -25 330 -11
246 -33 573 -55 800 -8 83 -20 275 -26 429 l-12 278 21 17 c21 15 226 98 677
275 527 206 696 321 808 547 94 189 113 370 92 849 -8 173 -19 430 -25 570 -6
140 -15 307 -20 370 -28 321 -24 302 -63 298 -57 -5 -59 -18 -54 -363 5 -361
-4 -559 -28 -630 -57 -167 -202 -277 -580 -442 -210 -91 -206 -90 -343 -155
-423 -202 -649 -449 -692 -759 -12 -86 -9 -290 10 -709 5 -113 14 -315 20
-450 13 -292 26 -538 45 -830 8 -118 22 -330 30 -470 16 -255 41 -663 52 -837
3 -51 3 -93 -1 -93 -4 0 -28 9 -53 21 -79 36 -178 52 -328 52 -77 1 -176 -5
-220 -12 -176 -27 -383 -101 -494 -175 -36 -24 -76 -47 -88 -50 -20 -6 -21 -5
-13 31 14 61 58 405 72 558 7 79 12 287 12 480 0 496 -27 777 -136 1400 -128
735 -137 940 -57 1351 32 166 76 328 138 507 43 123 99 265 112 282 9 12 172
338 229 459 23 50 78 162 122 250 150 302 271 587 470 1106 126 332 169 472
176 583 l7 98 68 61 c87 78 143 158 199 288 80 185 125 357 242 942 25 124 57
257 71 295 14 37 30 87 35 110 16 68 48 527 66 918 18 398 14 643 -12 805 -21
135 -21 149 7 245 22 78 23 92 23 515 1 616 -28 987 -125 1560 -18 109 -27
155 -80 395 -65 305 -228 849 -306 1030 -20 44 -68 130 -108 191 -84 127 -94
148 -135 289 -35 122 -83 241 -155 385 -104 207 -367 670 -446 785 -66 96
-198 243 -309 345 -97 89 -419 350 -432 350 -4 0 15 -44 42 -97 27 -54 63
-149 81 -213 31 -111 32 -118 21 -195 -22 -152 -121 -304 -236 -362 -68 -34
-156 -41 -227 -18 -121 40 -211 94 -291 176 -88 90 -130 166 -154 279 -34 158
-18 281 53 402 48 82 105 138 183 176 52 26 75 32 129 32 82 0 162 -20 242
-61 119 -59 85 -22 -182 199 -92 76 -236 191 -320 257 -181 140 -420 332 -759
610 -674 552 -1007 801 -1445 1080 -360 229 -969 542 -1320 679 -759 295
-1394 448 -2224 536 -275 29 -915 48 -1156 33z m945 -243 c423 -26 991 -122
1388 -235 387 -111 696 -215 744 -250 23 -17 23 -17 -12 -11 -19 4 -129 35
-245 71 -115 35 -241 71 -280 80 -199 47 -236 55 -310 69 -297 59 -659 104
-1042 131 -370 26 -1105 18 -1438 -16 -244 -24 -535 -60 -650 -79 -33 -5 -105
-17 -160 -26 -417 -67 -1019 -220 -1550 -394 -349 -115 -407 -137 -935 -358
-341 -142 -907 -417 -1207 -584 -62 -35 -165 -92 -230 -128 -64 -36 -179 -103
-255 -150 -75 -47 -190 -118 -255 -158 -373 -230 -970 -651 -1340 -943 -44
-35 -125 -98 -179 -139 -54 -41 -132 -105 -174 -141 -41 -36 -108 -93 -148
-126 -303 -254 -737 -705 -1058 -1098 -379 -466 -710 -929 -1044 -1460 -62
-99 -123 -196 -136 -215 -12 -19 -70 -114 -127 -210 -57 -96 -129 -215 -159
-265 -223 -366 -272 -478 -247 -568 23 -84 98 -133 192 -124 76 7 96 26 137
130 59 151 149 312 292 519 41 60 108 134 108 120 0 -19 -14 -43 -97 -170
-128 -195 -191 -319 -202 -392 -14 -99 -8 -136 48 -325 25 -84 38 -195 23
-195 -6 0 -34 16 -64 35 -29 20 -100 54 -158 76 -230 88 -272 114 -312 193
-27 52 -36 176 -18 244 17 60 88 205 150 302 26 41 117 190 202 330 445 735
638 1027 981 1487 76 101 181 239 235 305 53 67 126 158 162 203 278 347 900
1001 1330 1397 181 166 519 454 662 564 248 190 350 266 473 352 606 429 1100
724 1720 1032 354 176 579 275 945 417 377 147 1059 366 1345 432 750 175
1283 252 1960 285 127 6 757 -3 935 -14z m-1130 -2084 c0 -8 -5 -27 -10 -41
-7 -18 -7 -39 0 -66 12 -43 26 -57 43 -40 8 8 8 11 -1 11 -8 0 -9 7 -2 26 13
32 12 37 0 29 -5 -3 -10 3 -10 14 0 12 4 21 9 21 5 0 12 14 16 30 8 35 26 38
54 9 52 -56 27 -145 -53 -186 -70 -36 -141 19 -141 110 0 41 5 53 28 73 31 27
67 32 67 10z m-306 -22 c29 -11 17 -84 -13 -84 -23 0 -41 20 -41 45 0 21 17
45 31 45 4 0 14 -3 23 -6z m5930 -193 c14 -27 56 -100 94 -162 163 -270 220
-385 268 -543 30 -98 31 -136 6 -136 -30 0 -46 27 -107 180 -70 176 -134 306
-211 430 -100 162 -140 280 -94 280 14 0 27 -15 44 -49z m-5846 -103 c-2 -15
-11 -24 -25 -26 -27 -4 -30 10 -7 32 22 23 36 20 32 -6z m2981 -122 c398 -38
664 -84 1031 -177 196 -50 463 -141 690 -234 222 -92 514 -252 689 -378 85
-61 257 -197 296 -233 11 -11 47 -41 79 -69 73 -61 135 -154 373 -560 188
-320 189 -323 323 -701 245 -689 388 -1346 510 -2339 22 -176 45 -351 52 -388
11 -61 10 -74 -6 -115 -10 -26 -24 -63 -31 -82 -7 -19 -18 -78 -25 -130 -18
-149 -50 -813 -56 -1170 l-6 -325 -38 -140 c-71 -256 -107 -397 -194 -746
-112 -451 -144 -554 -226 -729 -84 -181 -123 -289 -200 -556 -115 -403 -242
-699 -490 -1144 -170 -306 -533 -800 -587 -800 -7 0 -37 20 -67 44 -130 105
-416 291 -567 366 -249 126 -594 254 -854 319 -1097 273 -2290 146 -3370 -357
-411 -192 -617 -308 -995 -563 -307 -207 -593 -429 -865 -673 -141 -127 -467
-456 -610 -618 -301 -338 -649 -805 -855 -1148 -76 -127 -99 -160 -110 -160
-5 0 -14 17 -20 38 -34 109 -292 639 -433 892 -205 366 -328 554 -586 899
-521 693 -1198 1254 -1878 1554 -469 208 -855 292 -1333 290 -368 -1 -673 -45
-1045 -151 -93 -27 -174 -46 -178 -42 -14 13 12 615 38 860 48 457 93 723 186
1094 113 452 287 970 483 1436 73 174 126 338 126 392 0 24 4 49 9 57 5 8 52
22 105 32 53 11 118 30 145 43 81 41 188 176 306 386 140 248 487 814 701
1144 72 111 266 385 320 452 18 22 90 112 160 200 356 446 720 830 1264 1335
411 382 947 799 1456 1134 451 297 734 460 1219 700 504 250 914 416 1521 615
155 50 295 100 311 110 22 13 33 31 43 66 16 60 32 74 87 74 34 0 46 -5 58
-24 8 -13 13 -30 10 -39 -13 -32 -8 -31 310 38 649 141 935 185 1445 225 293
24 1011 21 1279 -4z m-3460 -205 c21 -38 24 -97 6 -114 -36 -37 -146 -6 -145
41 2 67 112 125 139 73z m-2828 -394 c97 -65 116 -206 40 -298 -42 -50 -86
-69 -163 -69 -52 1 -70 5 -103 28 -59 41 -80 84 -80 162 1 133 71 197 216 199
43 1 64 -4 90 -22z m9639 -578 c112 -196 215 -373 249 -427 l20 -32 -20 -19
c-35 -33 -76 -46 -95 -30 -23 19 -77 106 -123 197 -21 42 -83 156 -137 252
-55 96 -107 192 -117 213 l-17 39 29 -22 c17 -11 39 -33 51 -47 27 -35 35 -24
15 23 -8 21 -13 44 -10 52 12 32 53 -21 155 -199z m560 -554 c0 -9 33 -100 74
-203 201 -505 261 -691 327 -1004 72 -345 97 -595 124 -1217 8 -201 18 -338
24 -344 8 -8 20 -4 41 11 l30 23 25 -25 c19 -19 25 -35 25 -71 0 -50 -18 -75
-77 -106 -32 -17 -45 -52 -59 -156 -8 -63 -16 -61 155 -37 62 8 119 13 127 10
13 -5 21 -46 8 -46 -3 0 -62 -9 -132 -19 -70 -11 -145 -22 -167 -25 -22 -2
-56 -7 -75 -11 -44 -8 -50 -1 -78 85 -27 82 -42 167 -87 505 -37 283 -52 376
-109 692 -94 518 -234 1015 -452 1601 -19 51 -34 99 -34 108 0 16 71 85 146
141 24 18 65 49 91 68 50 38 73 44 73 20z m1876 -245 c64 -124 148 -284 185
-357 64 -123 82 -173 60 -173 -12 0 -213 134 -290 193 -36 28 -135 97 -220
155 -86 57 -176 120 -201 139 -42 32 -43 34 -15 27 17 -4 35 -10 40 -14 10 -7
161 -88 263 -141 59 -31 163 -69 187 -69 8 0 15 5 15 11 0 12 -117 354 -130
379 -9 18 -22 86 -16 79 3 -3 58 -106 122 -229z m787 -1855 c8 -33 31 -123 50
-200 32 -126 54 -236 117 -590 25 -145 47 -298 60 -418 5 -53 15 -141 20 -194
34 -315 55 -1193 30 -1208 -6 -3 -36 18 -68 47 -140 131 -413 355 -550 451
-88 62 -117 91 -107 106 9 15 38 14 61 -4 10 -8 27 -15 37 -15 10 0 93 -38
185 -84 92 -46 194 -94 227 -106 33 -13 64 -27 70 -32 5 -4 19 -8 32 -8 l23 0
0 263 c0 144 -7 343 -15 442 -26 314 -35 413 -45 503 -5 48 -15 128 -20 177
-6 50 -36 263 -67 475 -63 438 -67 467 -60 460 3 -3 12 -32 20 -65z m-1343 45
c30 -16 81 -88 95 -133 23 -75 -18 -148 -113 -204 -38 -23 -51 -25 -110 -20
-63 5 -69 7 -103 46 -38 42 -59 102 -59 165 0 52 56 112 124 131 91 25 139 30
166 15z m1059 -689 c9 -6 -10 -8 -52 -7 -37 1 -70 5 -74 9 -10 10 110 8 126
-2z m67 -38 c13 -16 24 -22 24 -15 0 7 18 -4 41 -25 44 -41 93 -136 86 -165
-3 -10 -1 -21 4 -24 20 -12 4 -153 -20 -177 -19 -19 -22 -1 -6 42 11 32 12 48
4 63 -8 15 -8 19 0 14 16 -10 13 0 -4 18 -10 10 -16 36 -17 71 -2 39 -6 55
-16 55 -7 0 -11 4 -8 9 6 9 -23 38 -33 33 -3 -1 -6 6 -7 17 -2 27 -14 42 -27
34 -7 -4 -5 2 3 12 14 17 14 18 -8 6 -13 -7 -26 -10 -30 -7 -3 3 1 6 8 6 9 0
8 6 -5 20 -10 12 -25 18 -33 15 -12 -4 -13 -3 -2 10 17 20 19 19 46 -12z
m-504 -357 c3 -14 1 -31 -3 -38 -6 -8 -9 1 -9 25 0 42 6 48 12 13z m29 -68 c2
-32 9 -53 18 -56 6 -2 11 -11 11 -20 0 -15 2 -15 10 -2 8 12 10 11 10 -7 0
-13 -2 -23 -5 -23 -11 0 -65 84 -65 102 0 20 20 26 21 6z m579 -33 c-7 -8 -9
-15 -4 -15 4 0 -5 -13 -21 -30 -15 -16 -32 -27 -37 -24 -10 6 16 34 32 34 6 0
10 6 7 13 -2 6 2 20 11 30 18 21 30 14 12 -8z m-490 -101 c0 -8 -5 -12 -10 -9
-6 4 -8 11 -5 16 9 14 15 11 15 -7z m400 1 c-7 -9 -15 -13 -19 -10 -3 3 1 10
9 15 21 14 24 12 10 -5z m-70 -49 c0 -2 -7 -6 -15 -10 -8 -3 -15 -1 -15 4 0 6
7 10 15 10 8 0 15 -2 15 -4z m-1560 -56 c24 -15 -9 -40 -61 -47 -24 -3 -48 -9
-54 -13 -5 -4 -25 -11 -42 -15 -18 -3 -33 -10 -33 -15 0 -4 -26 -17 -59 -30
-62 -23 -119 -65 -122 -90 -4 -35 3 -46 30 -57 48 -18 84 -83 88 -159 4 -74
-3 -78 -56 -32 -24 21 -41 48 -52 82 l-15 51 -7 -130 c-3 -71 -13 -202 -22
-290 -15 -160 -36 -584 -29 -596 2 -4 52 -4 110 -1 135 6 133 -10 -4 -32 -53
-9 -117 -20 -141 -24 -39 -6 -44 -11 -57 -47 -7 -22 -14 -49 -14 -60 0 -15 -2
-17 -12 -6 -25 25 1 1049 32 1264 20 136 65 175 270 232 89 25 222 33 250 15z
m145 -58 c79 -38 181 -106 282 -189 103 -86 461 -374 533 -430 80 -61 193
-153 287 -230 44 -38 191 -158 325 -268 318 -262 467 -406 511 -494 27 -55 33
-79 36 -151 4 -87 -9 -379 -35 -825 -25 -430 -31 -506 -42 -517 -7 -7 -62 37
-179 142 -173 157 -395 346 -518 441 -38 29 -97 76 -130 104 -33 27 -75 61
-93 75 -17 14 -32 29 -32 33 0 4 17 -6 39 -23 21 -17 52 -39 69 -48 31 -17
140 -92 342 -232 63 -44 139 -92 169 -107 30 -14 83 -46 117 -70 34 -24 64
-43 67 -43 23 0 50 298 50 570 1 350 -25 537 -95 680 -41 85 -174 222 -377
388 -84 70 -186 153 -225 186 -39 32 -125 107 -191 167 -66 59 -168 145 -226
191 -58 46 -148 117 -200 159 -52 42 -200 158 -329 259 -230 179 -260 209
-245 248 7 18 24 15 90 -16z m-17861 -149 c-142 -269 -349 -692 -431 -883 -24
-58 -71 -166 -103 -240 -53 -122 -109 -281 -156 -444 -17 -58 -17 -60 4 -97
28 -49 27 -87 -3 -173 -26 -75 -49 -105 -108 -143 -25 -16 -45 -40 -58 -71
-23 -53 -77 -242 -108 -380 -11 -50 -29 -131 -40 -180 -28 -125 -92 -464 -106
-562 -4 -25 -20 -117 -35 -205 -51 -286 -50 -273 -23 -271 20 1 23 6 23 46 0
44 8 91 48 281 39 181 41 187 71 194 30 6 81 -9 81 -24 0 -13 -17 -23 -23 -14
-2 5 -2 3 -1 -4 2 -7 -3 -19 -11 -27 -8 -8 -15 -21 -15 -28 0 -7 -6 -22 -13
-33 -8 -11 -20 -42 -27 -70 -7 -27 -17 -55 -21 -60 -6 -9 -15 -72 -18 -132 -1
-6 -10 -15 -22 -18 -16 -5 -18 -10 -8 -21 9 -11 9 -14 0 -14 -7 0 -10 -4 -6
-9 3 -5 1 -13 -5 -16 -6 -4 -8 -16 -4 -27 4 -13 2 -18 -4 -14 -6 3 -14 -4 -18
-16 -10 -31 -12 -168 -2 -168 4 0 8 -6 8 -14 0 -8 7 -22 16 -31 14 -14 15 -22
5 -54 -14 -48 -14 -61 0 -61 5 0 8 4 5 9 -4 5 -3 17 1 28 11 27 20 -24 22
-118 l1 -76 28 3 c15 2 20 1 11 -2 -27 -8 -33 -164 -7 -164 5 0 6 4 3 10 -3 5
-1 18 4 27 8 14 10 9 11 -24 0 -34 -3 -41 -15 -37 -8 4 -15 1 -15 -5 0 -6 5
-11 10 -11 7 0 7 -7 -1 -21 -8 -16 -18 -20 -40 -17 -29 5 -29 4 -29 -48 l0
-52 40 5 c49 7 54 -10 8 -27 -26 -9 -30 -13 -18 -20 11 -6 15 -21 13 -47 -2
-21 -3 -63 -2 -95 0 -31 -4 -59 -9 -62 -12 -7 -24 49 -16 80 4 15 2 24 -5 24
-14 0 -19 -275 -5 -323 4 -11 1 -17 -8 -15 -7 2 -16 19 -19 38 -4 19 -6 -22
-5 -92 0 -69 -2 -121 -6 -115 -4 7 -8 26 -8 42 0 21 -3 26 -9 16 -14 -22 -22
34 -32 237 -5 103 -13 234 -18 292 -12 142 -13 679 -1 760 5 36 11 74 12 85 2
15 -8 25 -38 40 -23 11 -48 26 -57 33 -25 22 -9 42 33 42 25 0 40 5 44 16 3 8
11 68 16 132 6 64 20 160 31 212 10 52 42 214 70 360 46 245 89 437 168 747
17 66 31 130 31 140 0 14 -18 28 -62 48 -84 39 -98 52 -98 90 0 82 79 253 117
256 10 1 60 1 110 -1 71 -2 94 1 97 11 38 132 58 195 79 249 60 155 90 229
116 285 16 33 59 130 97 215 74 167 334 689 376 755 14 22 42 71 63 109 41 74
76 117 83 98 2 -6 -27 -69 -64 -139z m1946 -161 c50 -25 103 -98 95 -131 -11
-45 -53 -99 -99 -126 l-45 -26 -38 19 c-59 31 -123 100 -123 135 0 40 27 92
62 122 36 30 96 33 148 7z m17069 -22 c95 -48 117 -180 39 -234 -28 -20 -107
-21 -152 -2 -73 31 -155 132 -141 176 8 25 59 73 87 82 38 12 123 1 167 -22z
m-448 -659 c34 -34 37 -64 9 -109 -39 -63 -106 -64 -150 -2 -26 37 -25 58 5
103 23 32 31 37 66 37 31 0 47 -7 70 -29z m-1024 -728 c-4 -16 -11 -80 -17
-143 -24 -266 -33 -332 -60 -465 -16 -77 -45 -194 -64 -260 -20 -66 -72 -250
-116 -410 -105 -382 -108 -391 -124 -404 -10 -9 -59 2 -207 44 -107 31 -197
59 -201 63 -10 10 12 140 52 312 17 74 37 164 45 200 77 357 186 782 231 902
39 104 50 114 157 137 182 39 233 48 271 50 37 1 38 0 33 -26z m176 -24 c55
-30 196 -126 299 -206 62 -48 176 -135 253 -193 214 -161 403 -317 885 -726
63 -54 174 -141 245 -194 137 -102 240 -202 268 -262 9 -20 17 -54 17 -76 0
-74 -29 -264 -75 -492 -112 -550 -161 -694 -299 -877 -62 -81 -76 -91 -108
-75 -22 12 -189 140 -499 381 -74 58 -253 197 -399 310 -349 270 -488 380
-585 464 -112 97 -289 229 -357 267 -32 18 -58 33 -58 35 0 25 14 32 43 23 18
-5 50 -14 72 -19 22 -5 45 -15 50 -22 6 -7 18 -16 27 -22 37 -23 346 -230 383
-256 22 -16 85 -61 140 -101 55 -39 134 -96 175 -127 41 -31 121 -87 177 -126
56 -38 153 -106 215 -151 147 -105 382 -259 483 -317 86 -49 154 -72 190 -63
63 16 117 102 154 245 23 90 28 244 9 269 -7 8 -7 12 2 12 10 0 10 3 0 15 -10
12 -9 16 4 21 9 3 16 12 16 20 0 8 -10 3 -25 -12 -15 -14 -22 -30 -18 -37 4
-7 -8 1 -26 16 -38 32 -143 87 -165 87 -16 0 -46 26 -46 41 0 5 11 9 25 9 14
0 25 -4 25 -10 0 -5 7 -7 15 -4 8 4 12 11 9 18 -3 6 0 4 8 -5 20 -24 58 -41
75 -35 14 6 14 9 0 30 -15 23 -15 24 3 19 11 -3 20 -10 20 -16 0 -14 32 -36
53 -37 13 0 17 8 17 40 0 29 4 40 15 40 9 0 18 7 21 15 4 8 12 15 19 15 8 0
27 12 44 26 17 14 31 21 31 15 0 -6 3 -11 8 -11 4 0 15 39 25 88 10 48 22 105
27 127 12 55 12 172 0 180 -5 3 -10 17 -10 31 0 13 -9 33 -20 44 -11 11 -20
23 -20 26 0 3 -7 12 -15 20 -8 9 -15 13 -15 11 0 -3 -14 8 -31 24 -32 30 -55
37 -61 19 -3 -9 -97 34 -108 50 -3 4 -29 20 -59 36 -83 43 -115 38 -209 -31
-53 -39 -59 -68 -61 -272 -2 -131 1 -168 14 -193 9 -17 13 -36 9 -42 -4 -6 -3
-8 3 -5 6 4 15 -11 22 -33 6 -22 15 -40 19 -40 15 0 42 -59 42 -93 0 -20 4
-37 10 -39 5 -2 6 -9 1 -17 -8 -12 -16 -12 -54 -1 -83 23 -102 51 -218 315
-53 121 -127 205 -255 290 -132 88 -255 138 -549 221 -33 9 -103 33 -155 53
-86 32 -102 42 -171 111 -55 54 -79 85 -84 110 -4 19 -14 43 -22 52 -9 10 -13
28 -11 43 4 16 1 25 -8 25 -10 0 -12 -13 -8 -52 8 -73 21 -105 68 -163 51 -62
64 -74 149 -130 37 -25 67 -50 67 -55 0 -5 7 -6 17 -3 11 4 14 3 9 -6 -5 -7 0
-21 12 -34 13 -14 22 -43 27 -83 6 -58 5 -63 -22 -93 -39 -43 -116 -53 -381
-49 l-214 3 5 30 c4 29 16 72 112 400 53 179 146 557 175 706 31 162 70 401
70 430 0 40 9 45 43 28z m-16913 -727 c102 -51 107 -202 9 -252 -71 -37 -153
-21 -198 36 -24 31 -29 123 -8 164 32 63 126 88 197 52z m18265 -738 c-8 -20
-18 -61 -21 -90 -7 -60 -19 -70 -29 -25 -13 59 18 151 50 151 14 0 13 -4 0
-36z m-19841 -40 c3 -9 6 -34 6 -57 0 -40 0 -41 -15 -20 -9 12 -15 38 -13 58
2 37 12 45 22 19z m20033 -30 c-3 -3 -12 -4 -19 -1 -8 3 -5 6 6 6 11 1 17 -2
13 -5z m38 -14 c3 -6 -1 -7 -9 -4 -18 7 -21 14 -7 14 6 0 13 -4 16 -10z m-156
-104 c-17 -59 16 -157 78 -231 63 -76 93 -63 198 80 14 20 14 20 15 -3 0 -29
-111 -142 -139 -142 -11 0 -26 -2 -33 -5 -8 -3 -27 6 -44 20 -16 14 -32 25
-36 25 -5 0 -8 5 -8 12 0 6 -11 25 -23 42 -13 17 -27 45 -32 61 -11 42 -8 119
5 123 5 2 10 20 10 40 0 25 3 33 9 23 5 -8 5 -27 0 -45z m281 -18 c0 -6 -1 -9
-3 -7 -2 2 -15 22 -31 44 l-28 40 31 -33 c17 -18 31 -37 31 -44z m-2599 12
c188 -40 329 -85 329 -106 0 -37 -93 -42 -271 -12 -109 18 -142 -11 -230 -198
-50 -107 -77 -174 -144 -364 -135 -386 -310 -806 -432 -1040 -185 -353 -355
-574 -713 -929 -191 -190 -351 -323 -368 -307 -3 4 78 88 179 189 373 368 626
723 885 1239 184 366 295 648 415 1053 85 288 125 393 177 473 18 28 50 28
173 2z m-17621 -82 c-6 -35 -14 -70 -17 -78 -4 -8 -5 -24 -5 -35 2 -20 1 -20
-6 0 -14 31 -5 118 12 131 9 6 16 22 16 34 0 13 3 20 6 17 4 -4 1 -35 -6 -69z
m975 -50 c22 -5 58 -21 80 -35 78 -50 114 -117 115 -214 1 -164 -102 -273
-260 -274 -57 0 -72 4 -115 32 -89 57 -136 134 -143 233 -7 97 33 176 118 235
63 44 103 48 205 23z m19272 -10 c-3 -7 -5 -2 -5 12 0 14 2 19 5 13 2 -7 2
-19 0 -25z m-20280 -110 c-3 -7 -5 -2 -5 12 0 14 2 19 5 13 2 -7 2 -19 0 -25z
m20251 5 c-12 -15 -22 -17 -13 -3 3 6 2 10 -4 10 -17 0 -24 -22 -10 -31 11 -7
9 -10 -9 -15 -17 -5 -20 -10 -12 -19 13 -16 -26 -28 -48 -16 -13 7 -11 10 6
15 11 4 24 17 28 29 8 27 33 46 56 44 13 -1 14 -4 6 -14z m-20267 -37 c9 5 7
-19 -11 -141 -22 -143 -30 -206 -30 -243 0 -21 -3 -42 -6 -45 -4 -4 -9 -39
-11 -79 -3 -40 -9 -78 -13 -83 -5 -6 -12 -245 -16 -533 -4 -287 -8 -521 -9
-520 -4 6 -15 426 -15 595 0 149 -2 172 -15 167 -12 -5 -15 3 -15 42 0 37 -3
45 -11 34 -7 -11 -8 -6 -4 19 5 23 3 36 -6 43 -11 7 -11 11 -1 15 6 2 12 13
12 23 0 23 17 35 23 18 2 -7 2 -2 0 12 -6 34 -23 50 -23 23 0 -12 -3 -24 -8
-27 -4 -2 -6 13 -4 35 3 26 8 37 16 32 6 -4 5 1 -3 11 -12 15 -13 21 -2 38 10
16 10 22 1 28 -7 4 -9 13 -6 19 4 6 1 25 -8 41 -8 17 -10 30 -5 30 5 0 10 28
11 63 l1 62 7 -65 c4 -36 7 -53 8 -37 1 16 8 27 16 27 11 0 14 -12 12 -47 -2
-27 -1 -38 1 -25 2 12 8 22 12 22 4 0 8 6 8 13 1 23 35 202 39 206 2 2 4 -4 4
-14 0 -45 12 -1 16 61 3 38 7 78 9 89 2 11 4 40 5 65 1 25 4 39 7 32 2 -6 9
-10 14 -6z m20142 -348 c34 -32 76 -120 84 -173 7 -53 -3 -56 -43 -14 -57 61
-104 89 -150 89 -64 0 -114 -27 -114 -61 0 -31 -15 -47 -23 -25 -15 39 36 120
88 142 43 18 125 20 154 5 36 -20 35 -6 -4 28 -20 17 -31 31 -26 31 6 0 21
-10 34 -22z m-20333 2 c0 -5 -2 -10 -4 -10 -3 0 -8 5 -11 10 -3 6 -1 10 4 10
6 0 11 -4 11 -10z m17 -42 c-2 -13 -4 -5 -4 17 -1 22 1 32 4 23 2 -10 2 -28 0
-40z m73 17 c0 -8 -2 -15 -4 -15 -2 0 -6 7 -10 15 -3 8 -1 15 4 15 6 0 10 -7
10 -15z m-97 -90 c-7 -21 -12 -19 -10 4 0 11 5 18 9 15 4 -3 5 -11 1 -19z
m20167 -154 c-1 -10 -50 53 -50 63 0 6 11 -5 25 -24 14 -19 25 -36 25 -39z
m-14 -3 c15 -13 24 -17 20 -9 -6 9 -5 12 5 9 8 -3 13 -11 11 -17 -1 -7 2 -10
8 -6 5 3 15 -6 22 -20 8 -19 14 -22 20 -13 8 10 9 10 6 -1 -5 -16 -38 -24 -38
-10 0 6 -4 8 -9 5 -4 -3 -16 3 -26 14 -10 11 -22 17 -26 14 -5 -3 -9 2 -9 10
0 8 -7 22 -16 30 -23 24 -1 19 32 -6z m231 0 c-3 -8 -6 -5 -6 6 -1 11 2 17 5
13 3 -3 4 -12 1 -19z m-20380 -80 c-3 -7 -5 -2 -5 12 0 14 2 19 5 13 2 -7 2
-19 0 -25z m20373 25 c0 -5 -10 -31 -22 -59 -21 -47 -26 -51 -53 -49 -20 2
-29 8 -26 17 2 7 4 21 5 31 0 9 8 17 18 17 9 0 20 5 24 12 5 7 3 8 -5 3 -9 -5
-9 -1 1 14 12 20 58 30 58 14z m-2198 -75 c57 -24 120 -90 139 -144 7 -21 13
-68 13 -104 0 -84 -17 -133 -66 -186 -54 -59 -114 -78 -224 -72 -80 4 -86 6
-131 44 -100 83 -132 207 -82 314 75 160 200 213 351 148z m2083 -38 c3 -5 2
-10 -4 -10 -5 0 -13 5 -16 10 -3 6 -2 10 4 10 5 0 13 -4 16 -10z m-20289 -129
c-8 -13 -36 -15 -36 -3 0 4 5 13 12 20 14 14 34 0 24 -17z m38 -146 c-4 -8 -8
-15 -10 -15 -2 0 -4 7 -4 15 0 8 4 15 10 15 5 0 7 -7 4 -15z m-7 -67 c-3 -7
-5 -2 -5 12 0 14 2 19 5 13 2 -7 2 -19 0 -25z m20073 -64 c17 -15 51 -55 77
-91 l46 -65 -18 -77 c-27 -115 -92 -295 -244 -679 -158 -394 -240 -579 -418
-942 -144 -292 -264 -546 -333 -705 -219 -502 -323 -948 -324 -1395 0 -220 10
-300 95 -790 64 -375 76 -452 109 -715 33 -274 45 -834 21 -1090 -16 -177 -59
-490 -72 -518 -11 -26 -4 187 11 278 14 97 32 628 26 770 -21 440 -72 835
-175 1357 -80 405 -85 449 -86 738 0 149 5 299 13 360 47 382 117 687 248
1071 93 272 133 373 315 795 78 181 152 354 164 384 12 30 46 107 74 170 108
238 159 359 235 552 72 185 149 428 166 528 18 105 19 106 70 64z m-20113
-166 c-3 -7 -5 -2 -5 12 0 14 2 19 5 13 2 -7 2 -19 0 -25z m4003 -79 c222 -20
560 -107 815 -209 113 -45 340 -157 475 -235 160 -92 436 -280 555 -378 271
-223 720 -674 842 -846 38 -53 35 -69 -5 -22 -68 83 -207 234 -288 312 -284
273 -394 373 -489 444 -22 16 -67 52 -100 80 -131 109 -452 305 -668 409 -65
31 -120 56 -123 56 -2 0 -27 11 -56 24 -260 118 -680 211 -1008 223 -449 15
-859 -76 -1285 -287 -472 -233 -837 -537 -1162 -967 -163 -215 -255 -361 -394
-628 -69 -132 -98 -168 -84 -104 15 69 91 249 170 404 311 608 658 1006 1157
1328 333 215 757 365 1118 395 152 13 397 14 530 1z m9970 -40 c163 -17 411
-58 506 -83 252 -68 614 -185 614 -198 0 -10 4 -11 -82 7 -304 64 -796 78
-1228 35 -52 -5 -151 -14 -220 -20 -252 -22 -660 -91 -905 -152 -416 -103
-885 -281 -1335 -504 -168 -84 -242 -124 -410 -224 -197 -116 -630 -431 -865
-626 -308 -258 -700 -654 -974 -985 -294 -355 -368 -451 -535 -697 -31 -45
-56 -85 -56 -87 0 -3 -30 -51 -66 -107 -101 -155 -114 -177 -114 -186 0 -5 26
-14 58 -21 50 -11 65 -21 123 -79 104 -106 170 -242 170 -352 1 -158 -106
-375 -259 -522 -77 -75 -121 -100 -224 -127 -148 -41 -287 -44 -370 -10 -60
25 -56 31 -193 -376 -182 -544 -321 -1244 -367 -1855 -19 -257 -16 -911 5
-1112 59 -547 231 -1192 448 -1675 24 -55 137 -264 180 -333 33 -55 39 -70 27
-70 -14 0 -103 130 -183 263 -88 149 -224 443 -303 657 -186 501 -256 809
-321 1410 -68 624 -49 1276 55 1930 63 394 111 594 266 1095 45 143 86 277 91
297 9 30 7 56 -6 120 -32 155 -19 238 64 407 43 87 65 118 129 182 82 82 153
129 237 155 61 19 63 21 94 94 72 170 454 748 711 1077 284 364 705 808 1033
1089 345 296 547 445 960 712 261 168 759 419 1040 524 639 238 1101 338 1675
362 116 5 424 -4 530 -15z m-14013 -186 c-3 -10 -5 -4 -5 12 0 17 2 24 5 18 2
-7 2 -21 0 -30z m-30 -15 c-3 -7 -5 -2 -5 12 0 14 2 19 5 13 2 -7 2 -19 0 -25z
m30 -50 c-3 -7 -5 -2 -5 12 0 14 2 19 5 13 2 -7 2 -19 0 -25z m-27 -30 c-1
-18 1 -134 3 -258 3 -207 2 -219 -9 -150 -15 86 -16 440 -2 440 5 0 8 -15 8
-32z m207 0 c-3 -7 -5 -2 -5 12 0 14 2 19 5 13 2 -7 2 -19 0 -25z m16788 -315
c-10 -16 -70 -93 -134 -172 -64 -78 -136 -171 -160 -205 -183 -256 -695 -692
-1057 -898 -84 -49 -314 -165 -374 -190 -201 -85 -844 -385 -1035 -484 -308
-159 -691 -379 -885 -507 -374 -248 -687 -483 -920 -690 -749 -667 -1240
-1344 -1645 -2267 -178 -406 -261 -681 -272 -906 -7 -154 6 -234 59 -341 101
-207 359 -341 536 -279 57 20 141 85 182 139 39 51 50 57 50 27 0 -29 -59
-119 -105 -159 -78 -68 -236 -121 -362 -121 -76 0 -226 36 -296 72 -287 144
-311 556 -72 1233 104 294 175 458 332 770 304 604 639 1086 1152 1660 278
311 671 667 1026 930 66 48 136 101 157 116 153 118 583 388 881 553 174 96
540 283 717 366 398 186 1247 616 1504 761 219 125 282 174 511 406 116 117
214 213 219 213 4 0 0 -12 -9 -27z m-15245 -108 c0 -8 -42 -56 -94 -107 -227
-225 -494 -653 -644 -1033 -173 -435 -303 -933 -356 -1360 -55 -438 -67 -943
-36 -1430 27 -409 101 -928 200 -1400 32 -148 98 -402 155 -585 71 -232 203
-607 240 -680 12 -25 49 -106 81 -180 59 -138 211 -444 243 -490 10 -14 34
-54 53 -90 70 -129 229 -378 418 -653 31 -46 192 -255 239 -311 28 -33 48 -63
45 -67 -2 -4 5 -10 16 -14 11 -4 18 -10 15 -14 -2 -4 6 -17 18 -28 62 -55 157
-165 151 -175 -4 -6 -3 -8 3 -5 6 4 27 -11 47 -33 29 -31 33 -40 19 -40 -23 0
-268 244 -294 292 -6 11 -13 17 -16 14 -7 -7 -33 19 -33 34 0 6 -4 8 -10 5 -5
-3 -10 -1 -10 4 0 15 -86 101 -94 94 -3 -4 -6 1 -6 11 0 9 -4 14 -10 11 -5 -3
-10 0 -10 7 0 10 -2 10 -9 -1 -5 -8 -7 -21 -4 -30 4 -14 4 -14 -6 -1 -6 8 -19
15 -29 15 -10 0 -26 6 -35 13 -9 8 -21 11 -27 7 -7 -4 -9 3 -6 20 3 18 1 25
-7 22 -23 -8 -65 26 -77 64 -7 21 -17 36 -21 33 -4 -2 -13 4 -18 15 -10 18
-42 37 -40 23 3 -21 -3 -24 -16 -6 -14 18 -14 18 -8 -3 3 -13 9 -23 14 -23 5
0 9 -7 9 -15 0 -8 4 -15 10 -15 5 0 7 -7 3 -16 -4 -11 -1 -15 13 -12 11 2 18
-2 17 -8 -3 -18 45 -66 58 -58 7 4 9 0 5 -13 -4 -12 -1 -25 9 -33 8 -7 15 -18
15 -24 0 -7 19 -35 43 -63 93 -113 113 -138 138 -175 14 -21 28 -36 31 -33 2
3 19 -13 37 -35 43 -53 19 -52 -28 2 -20 23 -48 53 -63 67 -16 13 -28 27 -28
31 0 4 -20 28 -45 55 -25 26 -44 49 -42 52 2 2 -12 20 -32 41 -59 61 -320 406
-412 543 -120 178 -315 503 -402 669 -101 192 -308 642 -357 775 -118 325
-148 410 -185 530 -129 415 -209 774 -264 1190 -78 585 -75 1297 9 1920 104
771 351 1533 635 1965 71 107 332 419 403 481 63 54 152 122 212 159 30 19 75
51 100 72 48 40 70 48 70 23z m-1553 -102 c-2 -21 -4 -4 -4 37 0 41 2 58 4 38
2 -21 2 -55 0 -75z m17935 31 c38 -20 88 -109 88 -157 0 -101 -98 -198 -200
-197 -42 1 -113 44 -149 91 -32 41 -33 47 -28 106 2 35 12 74 21 87 22 35 81
77 119 87 40 10 113 2 149 -17z m-18125 -106 c-3 -8 -6 -5 -6 6 -1 11 2 17 5
13 3 -3 4 -12 1 -19z m173 -258 c0 -27 -4 -50 -10 -50 -11 0 -14 83 -3 93 12
12 13 8 13 -43z m-171 -122 c1 -18 4 -82 7 -143 7 -118 -5 -215 -52 -431 -13
-61 -24 -121 -24 -132 0 -48 -71 -222 -190 -467 -64 -130 -72 -143 -164 -256
-11 -13 -46 -61 -78 -107 -98 -140 -204 -283 -279 -377 -124 -154 -266 -386
-366 -595 -167 -347 -205 -438 -281 -665 -106 -318 -164 -580 -203 -920 -37
-325 -29 -771 22 -1150 32 -240 133 -661 189 -787 35 -81 106 -165 190 -227
102 -76 151 -95 231 -89 56 4 65 8 95 40 18 20 37 53 43 75 15 54 13 240 -4
358 -8 55 -14 116 -14 135 l0 35 13 -25 c8 -14 30 -90 50 -169 28 -113 36
-163 36 -235 0 -262 -119 -433 -292 -420 -138 10 -237 100 -357 325 -66 124
-104 230 -147 406 -81 334 -121 618 -144 1010 -16 282 -13 392 21 763 49 538
233 1097 552 1675 96 175 194 317 412 600 350 453 522 781 630 1200 42 164 75
369 75 467 0 83 8 138 21 138 4 0 8 -15 8 -32z m747 -153 c-8 -19 -28 -54 -44
-77 -102 -150 -222 -387 -386 -758 -128 -294 -168 -373 -250 -498 -70 -108
-107 -189 -165 -362 -80 -238 -132 -445 -175 -702 -4 -21 -11 -40 -16 -43 -34
-21 39 458 109 710 126 457 286 831 506 1185 88 140 253 372 330 460 16 20 45
55 64 78 18 23 35 42 37 42 3 0 -2 -16 -10 -35z m10937 -110 c60 -17 344 -60
464 -70 92 -8 96 -16 30 -57 -91 -58 -309 -231 -536 -427 -47 -40 -113 -96
-146 -125 -66 -56 -528 -515 -615 -611 -30 -33 -80 -89 -110 -125 -30 -36 -57
-67 -60 -70 -3 -3 -28 -32 -55 -65 -28 -33 -52 -62 -55 -65 -46 -42 -364 -457
-494 -645 -140 -203 -300 -444 -336 -507 -8 -15 -45 -78 -81 -140 -36 -62 -77
-133 -91 -158 -14 -25 -35 -61 -46 -80 -71 -120 -265 -509 -352 -705 -12 -27
-33 -74 -46 -103 -13 -29 -24 -57 -24 -62 0 -6 -4 -18 -9 -28 -19 -35 -49
-108 -61 -147 -7 -22 -16 -44 -21 -50 -5 -5 -9 -15 -9 -22 0 -7 -8 -32 -19
-56 -10 -23 -24 -62 -31 -87 -8 -25 -17 -49 -20 -55 -4 -5 -10 -23 -14 -40 -4
-16 -13 -43 -20 -60 -7 -16 -28 -77 -45 -135 -18 -58 -37 -114 -41 -125 -5
-11 -12 -36 -15 -55 -4 -19 -13 -48 -20 -65 -7 -16 -15 -41 -18 -55 -3 -14
-13 -52 -22 -85 -9 -33 -19 -73 -21 -90 -5 -30 -20 -97 -50 -222 -46 -191 -99
-529 -129 -828 -25 -237 -30 -667 -12 -865 16 -163 14 -306 -4 -324 -5 -6 -9
3 -9 25 -1 40 -12 160 -36 389 -20 195 -23 873 -4 1025 6 50 14 134 17 187 3
54 9 95 13 93 5 -3 13 34 20 83 6 48 17 96 23 107 11 20 25 94 48 245 6 41 19
120 30 175 10 55 20 125 23 155 2 30 1 40 -1 22 -2 -18 -8 -30 -14 -27 -5 4
-10 -6 -11 -22 -1 -34 -3 -43 -11 -63 -3 -8 -13 -55 -21 -105 -8 -49 -26 -157
-40 -240 -14 -82 -30 -179 -36 -215 -6 -36 -15 -81 -20 -100 -47 -173 -76
-618 -66 -995 7 -268 37 -640 59 -736 8 -35 21 -97 28 -136 7 -40 16 -73 21
-73 5 0 7 4 4 9 -4 5 -2 19 2 31 7 19 10 14 20 -31 6 -30 16 -97 22 -149 7
-52 13 -105 15 -117 2 -12 17 -61 34 -110 43 -126 53 -173 35 -180 -16 -6 -17
-13 -4 -33 9 -13 11 -13 20 0 8 12 10 11 10 -6 0 -43 -29 -18 -65 54 -45 91
-132 313 -173 442 -66 206 -135 581 -169 910 -22 210 -24 823 -5 1040 37 405
81 682 173 1080 58 249 180 675 240 830 15 41 51 136 78 210 70 191 121 316
189 471 66 149 249 522 312 639 94 171 115 208 158 280 308 514 641 943 1077
1389 159 162 239 235 463 424 31 26 125 99 207 162 83 63 173 131 200 153 93
72 187 132 207 132 11 0 43 -7 71 -15z m-11580 -57 c-5 -56 -17 -88 -33 -88
-12 0 -13 37 -1 44 5 3 12 26 15 51 10 63 25 57 19 -7z m3556 -226 c36 -26 53
-82 42 -134 -19 -83 -88 -116 -164 -79 -53 26 -67 49 -69 112 -1 55 20 94 63
117 31 17 95 9 128 -16z m-712 -241 c83 -40 114 -85 114 -170 1 -181 -192
-271 -354 -165 -93 61 -102 204 -19 296 69 76 153 89 259 39z m12523 -431 c-8
-6 -132 -69 -275 -140 -448 -223 -858 -480 -1265 -794 -558 -430 -946 -799
-1316 -1252 -210 -258 -413 -565 -574 -867 -42 -79 -77 -134 -82 -129 -8 8 31
142 53 181 5 9 29 66 53 126 136 340 244 538 418 774 148 200 421 494 643 692
28 25 102 92 165 150 111 99 157 137 385 311 190 146 271 203 495 345 321 205
696 395 1045 530 167 65 300 103 255 73z m-16046 -558 c-10 -15 -24 -36 -30
-47 -6 -11 -20 -36 -31 -55 -11 -19 -34 -60 -51 -90 -17 -31 -41 -65 -52 -77
-11 -12 -20 -27 -20 -33 0 -6 -4 -9 -9 -5 -11 6 6 65 19 65 5 0 12 9 15 21 7
20 44 81 65 106 6 7 15 24 22 38 6 14 15 25 19 25 4 0 10 12 14 27 8 34 24 55
36 47 5 -3 9 3 10 13 0 11 3 13 6 5 3 -7 -3 -25 -13 -40z m-207 -344 c-3 -8
-6 -5 -6 6 -1 11 2 17 5 13 3 -3 4 -12 1 -19z m-5196 -282 c-6 -70 -11 -212
-11 -316 0 -112 -4 -191 -10 -195 -5 -3 -29 12 -52 33 -81 73 -157 103 -290
117 -37 4 -70 10 -73 15 -8 13 15 341 25 360 7 13 28 19 82 24 124 11 209 34
268 70 30 19 59 31 63 26 5 -4 4 -65 -2 -134z m7867 -42 c49 -20 59 -70 27
-147 -18 -43 -153 -51 -182 -11 -34 47 -21 157 20 174 26 11 88 3 135 -16z
m15453 -604 c290 -289 454 -485 590 -707 173 -282 238 -402 279 -514 16 -43
25 -79 20 -79 -6 0 -10 4 -10 10 0 10 -62 117 -134 230 -64 102 -157 230 -208
290 -26 30 -64 80 -85 111 -47 70 -165 225 -230 300 -26 31 -82 97 -123 145
-41 49 -106 126 -145 170 -111 129 -270 323 -274 336 -10 29 84 -56 320 -292z
m-482 -559 c312 -62 575 -169 776 -319 346 -257 572 -618 685 -1092 80 -333
91 -729 30 -1090 -18 -104 -61 -294 -70 -303 -13 -14 -21 59 -9 89 23 62 69
496 69 660 0 107 -24 373 -45 495 -33 190 -100 380 -217 613 -71 141 -122 215
-237 342 -187 207 -341 312 -611 419 -134 53 -181 66 -375 106 -82 16 -285 39
-359 39 -191 0 -518 -48 -711 -105 -49 -15 -110 -33 -135 -40 -199 -55 -522
-200 -770 -347 -365 -215 -516 -325 -728 -533 -322 -314 -434 -430 -481 -497
-60 -85 -64 -113 -20 -160 26 -29 30 -39 26 -76 -7 -61 -60 -166 -93 -181 -22
-10 -36 -9 -77 6 -51 18 -71 38 -120 118 -27 43 -28 47 -13 70 39 60 85 100
143 126 49 22 71 40 105 84 238 312 374 466 548 622 272 244 454 371 797 561
373 207 742 328 1188 392 197 28 209 28 415 25 134 -3 214 -9 289 -24z m-23
-681 c117 -24 265 -64 291 -79 17 -10 17 -10 -2 -11 -12 0 -61 9 -111 20 -393
85 -881 31 -1434 -162 -193 -67 -478 -216 -714 -373 -417 -277 -576 -422 -770
-698 -121 -174 -168 -257 -160 -289 4 -22 2 -27 -9 -22 -14 5 -33 -23 -22 -34
3 -3 5 0 5 6 0 6 6 9 13 7 6 -3 23 12 37 32 14 21 31 44 37 51 7 7 13 20 13
29 0 18 151 166 230 226 30 23 61 48 68 54 81 76 451 319 637 418 33 17 110
59 170 92 61 33 155 84 210 113 55 29 116 63 135 75 19 12 67 37 105 54 39 18
81 39 95 46 47 24 162 55 207 55 24 0 64 9 89 21 79 36 77 16 -3 -38 -43 -28
-91 -63 -108 -78 -16 -14 -49 -40 -73 -56 -23 -17 -54 -41 -68 -54 -43 -40
-49 -29 -10 17 36 41 42 62 11 37 -105 -88 -293 -273 -359 -354 -72 -89 -62
-75 -134 -181 -112 -164 -174 -309 -208 -479 -18 -93 -21 -316 -4 -388 13 -62
50 -375 50 -432 0 -24 -4 -46 -9 -49 -5 -3 -26 -32 -47 -63 -21 -32 -88 -109
-149 -173 -254 -265 -515 -636 -675 -960 -92 -187 -93 -191 -88 -265 7 -76 29
-118 86 -162 56 -43 116 -52 168 -25 50 26 71 50 129 147 26 44 74 107 105
140 31 33 69 79 84 102 26 39 90 93 112 93 5 1 29 21 53 45 25 24 49 41 54 38
5 -3 -2 -13 -17 -22 -14 -9 -24 -21 -21 -28 2 -7 0 -13 -5 -13 -6 0 -10 -5
-10 -11 0 -5 4 -8 9 -4 12 7 19 -42 10 -75 -3 -14 -6 -51 -5 -83 1 -45 -1 -56
-12 -52 -10 4 -12 0 -8 -12 4 -9 1 -20 -6 -25 -11 -6 -10 -10 0 -17 19 -12
-13 -24 -41 -15 -14 4 -18 2 -15 -7 3 -8 12 -14 21 -14 8 0 19 -4 23 -8 4 -4
0 -7 -9 -7 -10 0 -17 -8 -18 -17 0 -15 -2 -15 -7 -3 -9 20 -32 24 -32 6 0 -8
-5 -16 -10 -18 -6 -2 1 -15 15 -31 25 -26 22 -39 -4 -14 -10 10 -10 7 -2 -15
7 -18 7 -28 1 -28 -6 0 -10 6 -10 14 0 7 -7 19 -16 27 -13 10 -17 10 -24 -2
-6 -8 -6 -15 0 -17 16 -6 11 -19 -9 -25 -17 -4 -19 1 -19 47 1 55 19 90 54 99
12 3 8 5 -13 6 -21 1 -33 7 -36 19 -5 17 -11 -30 -8 -55 1 -7 -8 -13 -19 -13
-17 0 -20 -4 -15 -21 5 -14 2 -25 -6 -30 -11 -7 -10 -9 4 -9 21 0 22 -23 1
-41 -13 -11 -18 -10 -26 5 -10 17 -13 15 -34 -20 -13 -21 -24 -47 -24 -57 0
-10 -7 -20 -16 -24 -11 -4 -12 -8 -4 -13 8 -5 8 -14 0 -34 -9 -23 -13 -26 -25
-16 -13 11 -15 8 -15 -16 0 -23 2 -26 11 -14 9 13 10 13 6 0 -2 -8 -9 -15 -14
-15 -20 0 -24 -12 -8 -25 8 -7 15 -18 15 -24 0 -6 39 -90 88 -186 48 -96 107
-216 131 -267 31 -67 59 -107 99 -147 76 -75 67 -82 -75 -67 -291 31 -490 105
-694 258 -347 261 -571 665 -644 1164 -9 57 -18 199 -21 314 -5 181 -3 229 15
350 25 168 53 283 116 470 87 260 184 490 272 643 73 126 320 496 399 597 271
349 793 727 1329 965 279 123 664 197 1041 199 165 1 220 -3 300 -19z m-2457
-435 c38 -19 81 -71 81 -97 0 -58 -144 -238 -191 -238 -31 0 -114 64 -132 103
-9 18 -19 51 -22 73 -6 35 -3 44 30 82 68 78 168 112 234 77z m2851 -80 c181
-39 291 -86 405 -171 243 -182 360 -406 410 -790 20 -151 19 -218 -5 -407 -43
-346 -112 -548 -337 -987 -182 -356 -271 -496 -487 -775 -112 -144 -371 -415
-483 -506 -40 -33 -106 -85 -145 -118 -312 -251 -794 -509 -1131 -605 -71 -20
-130 -36 -132 -36 -14 0 -8 254 9 395 12 96 52 237 98 346 30 69 131 268 196
386 29 51 62 114 75 140 21 43 129 236 160 288 42 68 200 299 220 321 7 6 41
47 77 89 36 43 96 112 134 154 83 92 119 144 152 216 49 106 29 206 -53 274
-85 70 -159 84 -274 52 -97 -27 -224 -51 -271 -51 -43 0 -92 26 -168 89 -126
105 -147 141 -156 262 -9 116 10 240 57 382 109 325 286 602 499 778 173 143
463 259 730 293 76 9 347 -3 420 -19z m-4191 -146 c58 -25 92 -68 99 -125 7
-67 -4 -92 -55 -124 -54 -35 -88 -37 -174 -13 -74 20 -83 35 -77 123 10 138
88 191 207 139z m-9477 -299 c14 -25 47 -85 73 -135 74 -139 207 -347 330
-519 169 -235 413 -486 681 -702 73 -58 289 -201 380 -251 254 -139 448 -198
749 -225 110 -10 154 -9 285 5 167 18 259 40 385 92 107 45 270 134 320 175 8
7 15 9 14 4 0 -5 -28 -31 -61 -59 -194 -161 -417 -266 -670 -317 -162 -33
-448 -33 -592 0 -229 51 -456 145 -636 262 -214 140 -483 377 -617 545 -132
166 -155 195 -224 290 -128 177 -276 441 -396 705 -38 83 -41 92 -49 130 -3
19 -11 41 -17 49 -6 7 -13 25 -14 40 -3 24 -1 23 15 -9 10 -19 30 -55 44 -80z
m20233 -212 c13 -101 31 -236 41 -301 9 -65 13 -129 10 -142 -7 -27 -73 -86
-196 -174 -102 -73 -148 -90 -188 -70 -15 7 -36 14 -47 15 -11 1 -31 2 -45 3
l-25 1 31 25 c17 13 48 45 69 71 45 55 39 52 -107 -44 -57 -38 -137 -88 -178
-112 -87 -52 -185 -127 -290 -224 -76 -70 -218 -180 -320 -247 -221 -145 -609
-337 -830 -409 -128 -43 -129 -45 60 106 138 110 302 221 560 379 198 121 386
245 500 328 109 80 399 368 505 501 96 120 246 298 318 375 33 35 66 80 74
100 13 30 16 32 24 18 6 -9 21 -99 34 -199z m-10362 -102 c6 -16 -14 -58 -52
-106 -71 -91 -219 -374 -325 -623 -115 -269 -243 -678 -285 -912 -15 -79 -31
-94 -31 -28 0 48 8 86 61 309 80 340 247 738 484 1159 56 99 104 188 108 198
8 20 33 23 40 3z m4835 -278 l-1 -153 -7 145 c-6 136 -6 160 6 160 2 0 3 -69
2 -152z m-23 -319 c-9 -51 -18 -95 -20 -98 -9 -8 -5 93 6 139 25 115 36 85 14
-41z m5646 -663 c12 -253 8 -284 -53 -378 -102 -158 -306 -328 -626 -522 -93
-56 -821 -455 -941 -516 -35 -17 -88 -48 -118 -68 -66 -44 -74 -37 -67 57 13
169 52 311 126 453 60 116 92 140 378 283 235 117 451 242 651 376 134 90 296
227 466 395 86 85 160 151 165 146 5 -5 13 -106 19 -226z m-7641 205 c0 -5
-15 -12 -34 -15 -19 -4 -36 -11 -38 -16 -2 -5 -25 -13 -52 -16 -37 -6 -48 -4
-44 6 9 29 168 68 168 41z m-416 -103 c22 -6 55 -22 73 -34 33 -25 79 -91 70
-101 -4 -3 4 -14 16 -25 20 -18 21 -18 1 -9 -11 5 -29 21 -39 35 -11 14 -34
31 -52 37 -18 6 -32 13 -32 17 3 20 -2 25 -11 12 -9 -13 -10 -13 -10 1 0 8
-16 23 -35 32 -19 9 -35 23 -35 32 0 18 2 18 54 3z m445 -125 c-18 -26 -60
-78 -94 -114 -273 -298 -402 -471 -699 -939 -125 -197 -279 -530 -344 -745
-57 -189 -77 -414 -47 -520 30 -108 30 -105 2 -105 -32 0 -111 44 -137 77 -29
37 -34 84 -21 193 28 227 140 538 301 835 97 178 268 450 368 582 37 49 110
148 162 219 52 71 137 170 188 221 51 50 113 117 137 149 51 65 164 183 192
200 30 19 27 -2 -8 -53z m-251 -101 c-11 -13 -10 -14 10 -3 20 10 22 9 22 -9
0 -28 -52 -80 -79 -80 -24 0 -24 0 -11 34 9 24 8 25 -14 16 -21 -7 -23 -6 -19
11 3 10 9 19 14 19 5 0 9 7 9 15 0 10 9 13 31 10 25 -3 29 -1 25 12 -5 13 -4
14 9 3 12 -10 13 -15 3 -28z m-267 -185 c-16 -16 -26 0 -10 19 9 11 15 12 17
4 2 -6 -1 -17 -7 -23z m-45 -69 c-19 -26 -20 -20 -5 19 6 15 13 22 16 16 2 -7
-3 -23 -11 -35z m-20468 -122 c51 -48 253 -182 402 -268 235 -135 445 -217
880 -345 124 -36 268 -78 320 -93 88 -26 363 -115 691 -224 201 -66 431 -130
509 -140 62 -8 42 0 -190 82 -377 134 -739 320 -1150 591 -80 53 -180 118
-223 145 -78 50 -96 76 -53 76 27 0 67 -15 186 -72 47 -22 121 -56 165 -75 44
-20 104 -46 132 -59 29 -13 153 -58 275 -100 123 -42 340 -118 483 -169 245
-87 464 -159 670 -220 89 -27 408 -127 725 -230 91 -29 180 -56 199 -60 44 -9
85 -48 228 -213 323 -374 771 -778 1156 -1043 78 -54 114 -76 316 -194 47 -28
86 -57 86 -65 0 -21 -76 -16 -216 15 -184 41 -278 50 -364 37 -83 -13 -178
-49 -241 -93 -90 -62 -212 -207 -255 -303 -11 -26 -27 -50 -34 -52 -8 -3 -33
5 -57 19 -24 13 -77 38 -118 55 -41 17 -212 90 -380 161 -458 194 -614 265
-951 429 -620 301 -1169 607 -1719 957 -80 51 -201 127 -270 170 -111 69 -157
100 -232 155 -18 15 -6 16 138 12 182 -5 174 -20 64 114 -101 123 -175 198
-309 316 -124 109 -307 251 -391 303 -102 64 -330 218 -395 267 -64 49 -135
127 -135 149 0 16 10 10 58 -35z m20242 -168 c-1 -14 -24 -48 -33 -48 -3 0 0
14 6 30 11 30 27 41 27 18z m-390 -38 c-8 -5 -19 -10 -25 -10 -5 0 -3 5 5 10
8 5 20 10 25 10 6 0 3 -5 -5 -10z m-629 -193 c-10 -9 -11 -8 -5 6 3 10 9 15
12 12 3 -3 0 -11 -7 -18z m-5914 -44 c-3 -10 -5 -2 -5 17 0 19 2 27 5 18 2
-10 2 -26 0 -35z m-8572 -77 c46 -20 75 -69 75 -129 0 -72 -29 -120 -92 -151
-28 -14 -59 -26 -68 -26 -36 0 -109 33 -136 61 -24 26 -29 39 -32 99 -3 54 0
76 13 96 36 56 163 82 240 50z m-4182 -246 c87 -85 180 -171 206 -190 157
-118 187 -162 44 -64 -126 87 -443 390 -443 424 0 18 11 8 193 -170z m26012 8
l7 -105 -34 -23 c-18 -13 -51 -40 -73 -61 -22 -20 -81 -70 -131 -110 -50 -41
-138 -112 -195 -159 -308 -253 -764 -564 -1009 -687 -72 -37 -324 -140 -490
-201 -25 -10 -46 -20 -48 -24 -2 -5 -12 -8 -23 -8 -10 0 -19 -4 -19 -9 0 -5
-17 -16 -37 -25 -21 -9 -58 -28 -83 -41 -25 -13 -53 -25 -62 -25 -9 0 -19 -4
-22 -9 -3 -4 -20 -11 -38 -15 -17 -3 -39 -12 -47 -20 -9 -7 -29 -16 -45 -19
l-30 -5 25 19 c13 10 29 19 35 19 6 0 60 25 120 55 60 30 114 55 119 55 6 0
39 16 75 35 36 19 92 47 125 62 99 45 227 113 280 148 28 18 88 58 135 88 374
246 856 645 1300 1077 166 162 153 163 165 -12z m-1595 -9 c-14 -11 -34 -26
-45 -35 -76 -60 -379 -248 -617 -383 -301 -170 -1041 -516 -1448 -676 -107
-42 -204 -81 -215 -85 -141 -60 -332 -133 -485 -185 -58 -20 -145 -51 -195
-70 -49 -19 -139 -53 -200 -75 -94 -35 -158 -60 -225 -88 -24 -10 178 202 230
242 62 47 120 72 330 139 399 128 460 148 575 187 787 271 1385 538 2075 927
102 57 196 110 210 118 34 19 41 8 10 -16z m-17630 -74 c10 -12 10 -15 -2 -15
-8 0 -15 7 -15 15 0 8 1 15 2 15 2 0 8 -7 15 -15z m39 -38 c8 -10 7 -14 -2
-14 -8 0 -14 6 -14 14 0 7 1 13 2 13 2 0 8 -6 14 -13z m19212 -58 c11 -50 29
-303 29 -393 0 -73 -2 -79 -27 -100 -15 -11 -86 -70 -158 -129 -268 -222 -588
-427 -949 -608 -66 -34 -125 -64 -131 -68 -20 -15 -106 -43 -112 -37 -8 7 -15
2 94 74 153 102 354 284 654 589 245 248 468 519 541 655 17 32 36 57 42 55 6
-2 14 -19 17 -38z m-7067 -91 c8 -5 7 -8 -3 -8 -9 0 -11 -8 -7 -26 7 -28 -32
-217 -46 -222 -4 -2 -8 -12 -8 -22 0 -24 -21 -70 -32 -70 -4 0 -8 7 -8 15 0 8
-7 15 -15 15 -8 0 -15 -5 -15 -11 0 -6 -7 -3 -16 5 -18 19 -16 81 4 81 20 0
14 20 -8 23 -11 2 -20 7 -20 12 0 5 10 6 23 3 58 -14 77 -15 77 -4 0 7 -9 9
-25 5 -19 -5 -25 -2 -25 11 0 13 6 16 24 11 20 -5 24 -2 24 20 0 17 -3 22 -8
14 -4 -7 -15 -10 -25 -7 -11 5 -14 3 -10 -6 4 -6 -1 -3 -9 7 -12 15 -16 16
-16 5 0 -12 -2 -12 -10 1 -14 22 -12 33 4 27 10 -4 15 4 18 24 3 20 0 29 -9
29 -15 0 -17 16 -3 25 6 4 8 11 5 16 -4 5 -3 18 0 30 6 19 7 20 20 2 8 -10 9
-20 4 -24 -6 -3 -6 -15 0 -30 5 -13 10 -19 11 -14 4 23 7 41 8 61 1 15 10 23
28 27 25 4 26 3 21 -34 -3 -22 -2 -41 3 -44 4 -2 11 19 15 48 5 30 10 44 13
32 2 -11 9 -23 16 -27z m-171 3 c2 8 4 -6 3 -31 -2 -35 -6 -46 -21 -48 -13 -3
-16 0 -11 13 3 9 6 31 6 48 0 22 3 28 9 18 7 -11 9 -11 14 0z m-78 -150 c3 -5
1 -12 -5 -16 -5 -3 -10 1 -10 9 0 18 6 21 15 7z m5853 -153 c-5 -16 -598 -413
-758 -507 -63 -38 -166 -97 -229 -132 -62 -35 -126 -71 -140 -79 -94 -53 -231
-185 -231 -222 0 -26 58 -112 82 -121 20 -7 1 -22 -62 -48 -30 -13 -75 -35
-100 -50 -81 -49 -371 -214 -550 -312 -170 -93 -327 -168 -460 -220 -217 -85
-1064 -362 -1565 -512 -115 -34 -264 -79 -330 -100 -66 -20 -140 -43 -165 -50
-79 -23 -211 -63 -345 -105 -444 -141 -1170 -331 -2025 -530 -74 -18 -245 -59
-380 -92 -307 -74 -1024 -218 -1091 -218 -45 0 -56 5 -127 59 -42 32 -105 75
-139 95 -35 20 -63 41 -63 46 0 6 26 10 58 10 72 0 286 55 424 109 l104 41
175 0 c1008 0 1976 274 2934 830 282 164 441 274 755 523 69 55 138 106 155
113 16 8 118 36 225 63 376 96 528 147 905 303 643 268 649 270 1090 343 341
57 467 84 603 131 167 57 394 165 612 292 52 31 163 93 245 140 83 46 183 103
222 126 156 88 178 98 171 74z m-5086 -47 c6 9 7 -27 4 -106 -18 -401 -19
-405 -32 -405 -14 0 -18 13 -29 85 -4 28 -3 36 4 25 5 -8 12 -12 14 -10 10 10
12 100 4 207 -6 80 -5 128 4 170 7 33 14 50 17 39 3 -15 6 -16 14 -5z m-652
-72 c0 -11 -4 -18 -10 -14 -5 3 -7 12 -3 20 7 21 13 19 13 -6z m-1466 -160
c174 -186 383 -406 479 -501 59 -59 101 -108 93 -108 -23 0 -125 57 -198 112
-71 52 -140 129 -323 358 -119 149 -165 213 -165 230 0 18 49 -21 114 -91z
m1629 16 c-7 -21 -13 -19 -13 6 0 11 4 18 10 14 5 -3 7 -12 3 -20z m-33 -106
c0 -6 -4 -7 -10 -4 -5 3 -10 11 -10 16 0 6 5 7 10 4 6 -3 10 -11 10 -16z m38
-77 l-4 -27 -12 29 c-15 35 -7 72 9 43 6 -10 9 -30 7 -45z m-7093 -59 c30 -47
215 -291 257 -341 22 -26 75 -83 117 -128 42 -44 103 -109 136 -145 33 -36 68
-68 78 -72 11 -4 15 -12 11 -18 -4 -7 -3 -9 4 -5 6 3 44 -22 84 -56 88 -76
321 -249 407 -303 9 -5 27 -17 41 -26 106 -68 436 -232 553 -274 26 -10 47
-21 47 -26 0 -4 -36 -7 -80 -6 -59 2 -79 5 -75 15 2 6 0 12 -5 12 -6 0 -10 -5
-10 -11 0 -8 -4 -8 -14 0 -10 9 -16 9 -21 1 -4 -6 -13 -9 -21 -6 -22 8 -73
-14 -79 -35 -6 -18 -12 -20 -55 -23 -8 -1 -15 -10 -15 -21 0 -17 -9 -21 -65
-27 -66 -7 -106 3 -123 30 -15 22 -24 4 -31 -60 -7 -59 -10 -66 -61 -115 -36
-35 -65 -54 -90 -59 -31 -5 -187 0 -835 32 -63 3 -189 12 -280 19 -91 8 -194
17 -230 20 -431 37 -828 94 -1072 155 -122 31 -160 43 -348 111 -131 47 -452
149 -584 184 -49 14 -93 28 -98 33 -10 10 17 21 92 41 25 7 59 16 77 20 23 6
32 5 30 -3 -2 -13 80 -25 103 -14 8 3 33 14 55 23 58 24 109 49 115 56 3 4 22
14 43 22 20 9 37 20 37 26 0 5 29 23 65 40 66 31 84 51 43 47 -36 -4 -69 -17
-64 -24 2 -4 -7 -8 -20 -8 -14 -1 -33 -11 -43 -23 -10 -12 -25 -21 -34 -21 -9
0 -23 -7 -31 -16 -9 -8 -16 -11 -16 -5 0 6 -10 10 -22 10 -17 -1 -19 -2 -5 -6
9 -2 17 -11 17 -19 0 -11 -5 -12 -17 -6 -10 5 -24 7 -30 5 -7 -3 -13 0 -13 5
0 6 -9 8 -20 5 -31 -8 -24 -21 13 -25 32 -3 32 -3 9 -16 -13 -8 -29 -12 -35
-9 -7 2 -16 5 -22 7 -5 1 -16 7 -23 13 -10 8 -3 15 30 30 35 15 218 122 376
219 15 9 59 24 97 34 72 17 229 63 395 116 139 43 302 106 392 149 43 22 81
39 84 39 34 0 697 414 719 450 12 19 43 10 60 -17z m11690 -482 c7 -12 -9 -22
-46 -28 -36 -5 -37 2 -1 21 32 18 39 19 47 7z m-107 -40 c10 -6 8 -10 -10 -14
-41 -12 -55 -8 -34 8 23 17 26 18 44 6z m-18017 -457 c178 -87 284 -132 394
-163 61 -18 124 -37 141 -42 17 -5 42 -9 57 -9 14 0 28 -4 31 -9 3 -4 19 -11
36 -15 33 -6 32 -19 -2 -37 -11 -6 -18 -7 -14 -1 12 20 -134 31 -163 13 -10
-6 10 -9 57 -8 47 1 76 -3 84 -11 11 -11 8 -12 -16 -6 -23 5 -27 4 -21 -7 6
-11 5 -11 -4 -3 -16 15 -51 6 -51 -12 0 -10 12 -14 39 -14 25 0 41 -5 45 -15
3 -9 19 -15 38 -16 25 -1 28 -3 13 -7 -11 -4 -21 -15 -21 -24 -1 -10 2 -15 7
-12 5 3 9 -2 9 -10 0 -9 7 -16 15 -16 8 0 15 -4 15 -10 0 -6 -46 -9 -115 -9
-105 1 -142 9 -97 23 9 3 1 4 -18 2 -37 -3 -80 11 -80 26 0 5 -6 6 -12 1 -18
-11 -72 -13 -79 -2 -3 5 -17 10 -31 11 -15 1 -24 6 -21 10 2 5 -13 7 -34 5
-21 -3 -42 -1 -48 3 -5 5 -46 16 -90 25 -44 9 -84 20 -89 26 -6 5 -21 9 -34 9
-13 0 -20 4 -17 10 8 12 8 12 -33 0 -19 -5 -47 -7 -62 -3 -26 5 -28 8 -23 37
3 17 19 69 34 115 16 46 29 91 29 100 0 27 21 91 29 91 4 0 50 -21 102 -46z
m756 -300 c-3 -3 -12 -4 -19 -1 -8 3 -5 6 6 6 11 1 17 -2 13 -5z m37 -31 c4
-9 2 -21 -4 -27 -7 -7 -10 -3 -10 13 0 12 -4 19 -10 16 -5 -3 -10 -1 -10 4 0
17 27 13 34 -6z m241 7 c3 -5 21 -10 38 -10 29 -1 156 -39 132 -40 -22 -1 49
-30 73 -30 32 0 23 -10 -20 -20 l-33 -8 34 -1 c30 -1 32 -3 19 -13 -16 -14
-34 -53 -19 -44 5 3 9 -6 9 -19 0 -17 -6 -25 -18 -25 -32 0 -18 -30 14 -31 28
-2 28 -2 6 -7 -23 -4 -21 -6 15 -17 36 -12 37 -13 12 -14 -19 -1 -26 -5 -21
-13 5 -8 0 -9 -17 -5 -33 10 -217 40 -259 43 -19 1 -39 3 -44 3 -5 1 -6 20 -2
44 20 134 25 165 35 190 10 27 34 36 46 17z m-1130 -119 c61 -16 193 -51 295
-79 102 -28 246 -64 320 -81 240 -56 265 -62 279 -70 11 -7 12 -27 2 -117 -6
-59 -12 -109 -14 -110 -4 -4 -120 29 -262 76 -205 66 -297 65 -510 -7 -69 -23
-109 -31 -130 -27 -16 3 -91 32 -165 64 -74 31 -156 63 -182 71 -27 7 -48 17
-48 21 0 4 19 20 43 36 46 33 180 168 216 220 12 17 28 32 34 32 7 0 62 -13
122 -29z m8339 12 c29 -6 29 -6 6 -15 -12 -5 -38 -6 -57 -2 -28 5 -31 9 -22
21 7 7 19 11 28 8 9 -4 29 -9 45 -12z m-7597 -29 c-3 -3 -12 -4 -19 -1 -8 3
-5 6 6 6 11 1 17 -2 13 -5z m7683 -14 c0 -5 -4 -10 -10 -10 -5 0 -10 5 -10 10
0 6 5 10 10 10 6 0 10 -4 10 -10z m53 -7 c-7 -2 -21 -2 -30 0 -10 3 -4 5 12 5
17 0 24 -2 18 -5z m94 -19 c29 -8 20 -24 -13 -24 -15 0 -24 6 -24 15 0 17 4
18 37 9z m-814 -49 c-3 -9 -2 -15 3 -13 5 1 18 -3 29 -9 24 -13 75 -14 75 -1
0 5 5 6 10 3 6 -4 8 -11 5 -16 -4 -5 3 -9 15 -9 12 0 18 4 15 10 -10 16 86 1
102 -16 8 -8 20 -14 26 -14 7 0 6 -4 -3 -10 -8 -5 -91 -10 -183 -10 -132 0
-166 3 -160 13 9 14 10 19 12 53 0 14 5 23 10 19 5 -3 12 -1 16 5 10 16 35 12
28 -5z m317 -51 c0 -2 -11 -4 -25 -4 -14 0 -25 4 -25 9 0 4 11 6 25 3 14 -2
25 -6 25 -8z m-6997 -91 c-7 -2 -19 -2 -25 0 -7 3 -2 5 12 5 14 0 19 -2 13 -5z
m212 -84 c221 -42 510 -86 940 -145 143 -19 366 -53 495 -75 514 -88 878 -139
984 -139 l53 0 7 -41 c10 -66 41 -114 135 -212 82 -86 88 -96 95 -145 7 -58
-2 -200 -15 -207 -4 -3 -76 4 -161 15 -84 11 -290 38 -458 59 -687 89 -1502
244 -1875 356 -114 34 -440 115 -464 115 -19 0 -21 6 -21 78 0 79 19 356 26
381 3 9 12 11 27 6 12 -4 117 -24 232 -46z m-3338 -43 c49 -18 192 -75 318
-125 329 -133 387 -155 510 -199 61 -22 187 -67 280 -101 179 -65 509 -174
635 -209 41 -12 167 -49 280 -81 218 -64 471 -126 660 -161 63 -12 151 -30
195 -40 476 -112 1572 -280 2175 -335 91 -8 307 -28 480 -45 432 -40 566 -48
1085 -61 471 -12 1303 -6 1655 12 540 27 1079 77 1545 144 55 8 172 24 260 35
88 11 214 30 280 40 401 65 579 95 815 135 438 75 837 116 1169 118 142 1 171
-2 200 -17 39 -21 161 -136 161 -153 0 -13 -33 -23 -75 -23 -34 0 -251 -35
-495 -79 -197 -35 -440 -74 -605 -96 -66 -9 -183 -25 -260 -35 -131 -18 -392
-49 -705 -84 -120 -14 -499 -47 -860 -76 -612 -48 -1517 -74 -2407 -67 -632 4
-747 8 -1073 31 -605 43 -766 59 -1460 140 -577 68 -1173 169 -1695 286 -71
17 -233 52 -360 80 -199 44 -322 75 -635 160 -485 133 -948 291 -1385 474 -88
37 -169 71 -180 76 -11 5 -83 36 -160 69 -268 114 -465 205 -465 216 0 12 35
3 117 -29z m6339 -406 c28 -6 90 -9 137 -7 48 2 89 2 92 -1 13 -13 -83 -125
-128 -149 -25 -12 -35 -12 -83 2 -45 13 -61 24 -94 66 -54 69 -54 117 0 105
14 -3 48 -11 76 -16z m496 -76 c65 -19 91 -46 60 -63 -25 -13 -121 2 -133 20
-15 24 -9 59 10 59 2 0 31 -7 63 -16z m278 -43 c39 -11 462 -35 890 -51 151
-6 381 -15 510 -21 432 -18 1800 -24 2151 -8 278 12 397 14 599 9 30 -1 82 0
115 3 122 11 235 26 244 32 5 3 28 1 51 -4 33 -7 40 -7 36 4 -4 10 2 11 27 4
17 -5 33 -5 36 -1 4 4 15 8 26 10 11 1 70 9 130 18 97 14 209 13 223 -1 3 -3
-14 -5 -37 -5 -26 0 -40 -4 -36 -10 6 -10 -36 -14 -120 -10 -22 1 -52 -3 -67
-9 -35 -13 -208 -35 -290 -36 -37 -1 -71 -4 -75 -8 -3 -4 0 -7 8 -8 8 0 -2 -7
-21 -14 l-35 -14 40 3 c22 2 29 1 16 -1 -19 -4 -21 -7 -10 -14 9 -5 1 -7 -23
-4 -21 3 -54 7 -73 9 -26 4 -35 1 -35 -10 0 -17 -5 -17 -33 -2 -33 17 -101 23
-92 8 8 -13 240 -167 291 -193 17 -9 52 -17 78 -18 25 -2 43 -6 39 -9 -17 -15
-137 -41 -160 -35 -14 3 -67 1 -117 -4 -391 -45 -779 -79 -1091 -96 -550 -31
-1770 -49 -2411 -35 -475 10 -1154 37 -1163 45 -3 3 13 41 34 85 33 67 59 100
155 198 89 90 118 127 128 160 14 46 13 46 62 33z m5138 -16 c7 -14 12 -32 12
-39 0 -8 16 -37 35 -66 19 -29 35 -54 35 -56 0 -2 -9 -4 -20 -4 -20 0 -62 22
-87 47 -15 14 -8 39 13 47 11 4 12 10 5 25 -6 10 -8 20 -6 23 2 2 -5 5 -17 5
-26 2 -42 24 -25 35 23 15 44 8 55 -17z m110 -32 l11 -38 -24 30 c-28 34 -31
45 -12 45 8 0 19 -17 25 -37z m-6106 -137 c40 -13 101 -27 136 -31 34 -4 64
-10 66 -14 3 -4 -2 -36 -9 -71 -8 -36 -14 -84 -15 -107 0 -35 -3 -43 -19 -43
-55 0 -317 33 -325 40 -6 6 -3 17 7 28 17 19 57 157 57 199 0 29 11 29 102 -1z
m377 -80 c52 -28 55 -38 32 -116 -27 -87 -47 -104 -108 -89 -50 13 -55 28 -39
108 21 103 52 129 115 97z m5088 -72 c-3 -3 -12 -4 -19 -1 -8 3 -5 6 6 6 11 1
17 -2 13 -5z"/>
<path d="M24442 26253 c-15 -6 -51 -75 -102 -198 -70 -168 -121 -280 -135
-294 -12 -12 -23 -10 -77 17 -214 107 -439 41 -477 -140 -10 -43 -9 -56 6 -87
48 -96 200 -150 345 -121 140 27 198 86 277 281 30 74 68 163 84 199 58 128
117 284 117 311 0 27 -15 40 -38 32z"/>
<path d="M19842 25538 c-11 -13 -35 -57 -52 -98 -65 -153 -209 -440 -224 -446
-8 -3 -30 5 -48 18 -68 49 -109 61 -217 66 -126 5 -163 -4 -226 -60 -135 -119
-108 -250 65 -318 80 -31 266 -31 334 0 89 42 115 85 252 418 46 112 93 220
103 240 20 40 61 165 61 188 0 21 -24 17 -48 -8z"/>
<path d="M29626 25763 c-3 -15 -7 -104 -9 -198 -5 -190 -1 -168 12 65 9 152 8
189 -3 133z"/>
<path d="M29601 25344 c0 -11 3 -14 6 -6 3 7 2 16 -1 19 -3 4 -6 -2 -5 -13z"/>
<path d="M11281 22238 c1 -68 4 -127 7 -132 3 -5 11 9 18 30 18 53 8 224 -13
224 -12 0 -14 -22 -12 -122z"/>
<path d="M11280 21820 c0 -11 5 -20 10 -20 6 0 10 9 10 20 0 11 -4 20 -10 20
-5 0 -10 -9 -10 -20z"/>
<path d="M30887 25493 c-23 -22 13 -50 47 -37 23 9 20 31 -6 38 -29 7 -33 7
-41 -1z"/>
<path d="M30337 24312 c-9 -13 38 -30 93 -31 46 -2 82 -23 61 -35 -6 -4 -11
-3 -11 3 0 5 -26 13 -57 17 -32 3 -64 11 -70 16 -9 7 -13 7 -13 -1 0 -6 4 -11
8 -11 5 0 17 -7 28 -16 18 -15 18 -15 -10 -11 -16 3 -43 -1 -61 -9 -18 -7 -35
-10 -39 -7 -4 4 -13 8 -22 9 -13 2 -13 0 -2 -13 10 -13 10 -17 1 -20 -7 -3
-13 -11 -13 -18 0 -8 -10 -15 -22 -17 -16 -2 -25 -13 -32 -38 -12 -42 -28 -60
-53 -60 -15 0 -16 -2 -3 -10 8 -5 11 -10 6 -10 -5 0 -3 -7 4 -15 10 -12 10
-15 -1 -15 -9 0 -7 -5 5 -11 21 -13 56 -46 56 -55 0 -3 -4 -3 -9 1 -5 3 -12 1
-16 -5 -3 -5 -1 -10 4 -10 6 0 11 -8 11 -17 0 -15 -2 -16 -10 -3 -6 9 -10 10
-10 3 0 -6 7 -19 16 -27 8 -9 13 -16 9 -16 -4 0 0 -7 9 -15 21 -21 29 -19 21
6 -5 15 -4 19 5 14 6 -4 10 -18 8 -30 -4 -17 6 -33 35 -62 22 -21 37 -31 33
-23 -5 11 -4 10 6 -1 7 -9 36 -24 63 -33 53 -18 133 -14 191 9 69 28 120 198
95 317 -10 46 -21 65 -57 101 -24 24 -44 49 -44 55 0 6 -10 18 -22 26 -18 13
-19 16 -5 16 9 0 26 -9 37 -20 11 -11 24 -20 29 -20 5 0 18 -12 29 -27 l20
-27 -2 29 c-2 43 -14 56 -75 89 -42 22 -70 29 -136 33 -50 4 -85 2 -88 -5z
m124 -119 c16 -10 29 -23 29 -30 0 -7 5 -12 12 -10 6 1 17 -8 23 -21 7 -13 15
-23 19 -23 3 1 6 -1 6 -4 -1 -11 29 -35 41 -33 18 4 32 -65 25 -115 -7 -49
-48 -115 -91 -149 -40 -32 -151 -33 -185 -3 -21 19 -76 115 -65 115 3 0 -4 9
-14 19 -16 16 -19 31 -17 93 4 92 16 121 63 152 46 30 112 34 154 9z"/>
<path d="M30321 24161 c-32 -32 -37 -117 -12 -198 23 -79 60 -121 112 -129 43
-7 83 22 117 86 44 83 23 155 -65 224 -55 43 -119 50 -152 17z"/>
<path d="M11471 22374 c0 -11 3 -14 6 -6 3 7 2 16 -1 19 -3 4 -6 -2 -5 -13z"/>
<path d="M11478 22334 c-5 -4 -8 -21 -7 -38 0 -30 0 -30 10 -7 11 27 8 57 -3
45z"/>
<path d="M11451 22284 c0 -11 3 -14 6 -6 3 7 2 16 -1 19 -3 4 -6 -2 -5 -13z"/>
<path d="M11824 16700 c4 -47 11 -170 16 -275 10 -207 18 -296 56 -575 38
-286 111 -695 133 -745 5 -11 14 -47 21 -80 13 -62 47 -199 56 -224 3 -10 8
-11 15 -4 12 12 -8 123 -21 123 -4 0 -13 36 -21 80 -7 43 -16 77 -19 75 -4 -2
-8 24 -8 58 -1 34 -8 87 -17 117 -8 30 -26 128 -40 216 -13 89 -29 183 -35
210 -11 45 -28 167 -66 449 -8 61 -18 142 -23 180 -5 39 -17 160 -26 270 -9
110 -19 202 -22 205 -3 3 -3 -33 1 -80z"/>
<path d="M12132 14745 c-1 -13 3 -27 8 -30 6 -3 10 5 10 19 0 32 -15 42 -18
11z"/>
<path d="M12170 14618 c0 -29 15 -54 24 -40 6 11 -9 62 -19 62 -3 0 -5 -10 -5
-22z"/>
<path d="M12218 14500 c-3 -8 -1 -26 4 -40 6 -14 12 -41 14 -60 5 -35 43 -122
57 -128 4 -2 7 -18 8 -35 1 -28 2 -26 10 13 9 42 6 51 -32 127 -22 45 -44 94
-48 110 -5 19 -9 23 -13 13z"/>
<path d="M12330 14221 c0 -5 5 -13 10 -16 6 -3 10 -2 10 4 0 5 -4 13 -10 16
-5 3 -10 2 -10 -4z"/>
<path d="M12336 14153 c9 -38 14 -42 14 -10 0 14 -5 29 -10 32 -7 4 -8 -3 -4
-22z"/>
<path d="M12641 13397 c4 -23 33 -100 65 -172 31 -71 58 -141 60 -155 1 -14 3
-28 3 -32 1 -5 5 -8 10 -8 5 0 8 12 6 27 l-3 27 19 -23 c15 -18 20 -20 24 -9
3 8 -26 78 -65 156 -38 79 -70 149 -70 157 0 8 -4 15 -9 15 -5 0 -12 11 -15
24 -3 13 -12 26 -19 29 -11 4 -13 -3 -6 -36z"/>
<path d="M12788 13003 c6 -2 12 -13 12 -22 0 -20 36 -71 50 -71 15 0 4 32 -14
42 -9 5 -21 21 -26 34 -5 13 -15 24 -22 23 -10 0 -10 -2 0 -6z"/>
<path d="M12886 12849 c21 -23 26 -24 22 -2 -2 9 -11 17 -21 19 -18 2 -18 2
-1 -17z"/>
<path d="M12921 12804 c0 -11 3 -14 6 -6 3 7 2 16 -1 19 -3 4 -6 -2 -5 -13z"/>
<path d="M12950 12775 c6 -8 8 -20 4 -27 -5 -10 -4 -10 6 -1 14 13 7 43 -11
43 -8 0 -8 -4 1 -15z"/>
<path d="M12976 12694 c13 -19 19 -22 25 -12 5 7 9 19 9 27 0 11 -3 11 -15 1
-10 -9 -15 -9 -15 -1 0 6 -5 11 -10 11 -6 0 -3 -12 6 -26z"/>
<path d="M13010 12683 c1 -15 28 -43 41 -43 10 1 9 4 -3 11 -10 5 -18 17 -18
24 0 8 -4 15 -10 15 -5 0 -10 -3 -10 -7z"/>
<path d="M13040 12679 c0 -5 5 -7 10 -4 6 3 10 8 10 11 0 2 -4 4 -10 4 -5 0
-10 -5 -10 -11z"/>
<path d="M13208 12503 c7 -3 16 -2 19 1 4 3 -2 6 -13 5 -11 0 -14 -3 -6 -6z"/>
<path d="M11263 20005 c0 -22 2 -30 4 -17 2 12 2 30 0 40 -3 9 -5 -1 -4 -23z"/>
<path d="M24785 13246 c-3 -9 -7 -23 -10 -31 -2 -8 -1 -15 4 -15 10 0 25 50
17 58 -3 2 -8 -3 -11 -12z"/>
<path d="M24741 13134 c0 -11 3 -14 6 -6 3 7 2 16 -1 19 -3 4 -6 -2 -5 -13z"/>
<path d="M25697 11621 c3 -12 10 -21 15 -21 13 0 6 32 -9 37 -7 3 -9 -3 -6
-16z"/>
<path d="M28714 14341 c-32 -21 -103 -80 -157 -130 -54 -50 -108 -96 -121
-101 -44 -16 -142 12 -405 114 -97 39 -153 44 -159 15 -2 -9 10 -22 30 -32 18
-9 121 -59 229 -111 259 -125 267 -132 304 -291 71 -306 121 -419 238 -537
127 -129 271 -258 282 -254 6 2 24 37 40 77 16 41 32 79 36 84 10 15 53 129
79 210 12 39 26 80 31 93 13 33 11 42 -6 35 -9 -3 -15 -2 -13 3 9 31 -101 165
-174 213 -149 96 -168 119 -168 195 0 36 11 67 50 142 40 77 50 106 50 145 0
79 -48 169 -90 169 -9 0 -43 -17 -76 -39z m169 -629 c18 -19 18 -25 3 -119 -9
-54 -20 -129 -24 -167 l-7 -69 -42 43 c-64 63 -70 95 -44 226 26 128 32 139
70 120 14 -8 34 -23 44 -34z"/>
<path d="M29036 14251 c-4 -7 -5 -33 -2 -59 4 -26 7 -66 8 -90 2 -52 11 -59
38 -32 15 15 18 25 12 33 -5 7 -13 35 -17 62 -8 59 -28 104 -39 86z"/>
<path d="M27604 14145 c-4 -9 -3 -35 2 -58 8 -38 12 -42 42 -45 26 -3 32 0 32
17 0 10 -5 21 -12 23 -6 2 -17 19 -23 38 -13 38 -32 50 -41 25z"/>
<path d="M27270 13660 c-20 -6 -14 -8 25 -8 37 -1 45 2 30 8 -24 10 -23 10
-55 0z"/>
<path d="M27065 13600 c-3 -5 1 -10 9 -10 9 0 16 5 16 10 0 6 -4 10 -9 10 -6
0 -13 -4 -16 -10z"/>
<path d="M28534 12777 c3 -10 6 -23 6 -28 0 -5 5 -9 10 -9 14 0 12 13 -6 36
-14 17 -15 17 -10 1z"/>
<path d="M28422 12745 c0 -16 2 -22 5 -12 2 9 2 23 0 30 -3 6 -5 -1 -5 -18z"/>
<path d="M28569 12706 c-4 -16 -7 -24 -30 -71 -13 -27 -30 -54 -36 -58 -7 -4
-13 -13 -13 -18 0 -6 -15 -26 -32 -44 -18 -18 -56 -57 -84 -86 -56 -58 -218
-214 -277 -266 -39 -34 -45 -45 -25 -41 22 5 185 156 353 328 103 105 175 197
175 224 0 14 -29 44 -31 32z"/>
<path d="M27765 12150 c10 -32 13 -36 25 -24 7 7 3 17 -11 30 -22 19 -22 19
-14 -6z"/>
<path d="M27973 12060 c-23 -9 -32 -30 -13 -30 6 0 10 4 10 8 0 5 10 14 23 20
27 13 11 14 -20 2z"/>
<path d="M27898 11995 c-16 -13 -24 -26 -19 -29 4 -3 21 8 36 24 34 36 21 39
-17 5z"/>
<path d="M26906 11439 c-15 -9 -16 -13 -5 -20 16 -10 35 -12 26 -2 -4 3 1 12
11 19 14 11 14 13 2 13 -8 0 -23 -4 -34 -10z"/>
<path d="M26810 11403 c-19 -8 -46 -16 -60 -18 -14 -1 -36 -7 -48 -12 -20 -8
-22 -11 -9 -21 12 -10 27 -9 76 4 33 9 58 20 56 25 -3 4 5 5 17 2 13 -3 20 -2
16 2 -4 4 -1 13 8 19 24 18 -14 18 -56 -1z"/>
<path d="M9391 11696 c2 -2 60 -23 129 -46 152 -51 310 -108 330 -119 17 -9
286 -95 440 -141 189 -57 359 -117 402 -144 24 -15 65 -40 91 -57 26 -17 51
-28 55 -24 4 3 -1 11 -11 16 -9 6 -17 17 -17 25 0 8 -4 12 -10 9 -5 -3 -8 0
-5 7 6 14 -93 64 -180 91 -315 97 -626 200 -865 287 -146 53 -190 67 -268 85
-61 15 -100 19 -91 11z"/>
<path d="M10611 11472 c-1 -25 20 -26 27 -1 3 12 2 12 -6 0 -8 -11 -11 -10
-15 5 -4 16 -5 15 -6 -4z"/>
<path d="M10990 10871 c0 -5 5 -13 10 -16 6 -3 10 -2 10 4 0 5 -4 13 -10 16
-5 3 -10 2 -10 -4z"/>
<path d="M11060 10796 c0 -2 7 -6 15 -10 8 -3 15 -1 15 4 0 6 -7 10 -15 10 -8
0 -15 -2 -15 -4z"/>
<path d="M11105 10749 c-6 -8 -4 -10 5 -4 10 6 12 4 6 -11 -6 -15 -5 -17 5 -6
9 9 10 15 2 23 -8 8 -13 7 -18 -2z"/>
<path d="M11144 10716 c-8 -22 1 -30 21 -19 15 9 15 11 1 22 -13 11 -17 10
-22 -3z"/>
<path d="M11227 10634 c-11 -11 3 -24 18 -18 8 4 12 10 9 15 -6 11 -18 12 -27
3z"/>
<path d="M11300 10550 c0 -5 10 -14 22 -21 18 -10 20 -9 15 6 -4 9 -7 19 -7
21 0 2 -7 4 -15 4 -8 0 -15 -4 -15 -10z"/>
<path d="M25898 11470 c3 -19 9 -27 18 -23 8 3 14 9 14 15 0 5 -4 6 -10 3 -5
-3 -10 1 -10 9 0 8 -4 17 -8 20 -5 3 -6 -8 -4 -24z"/>
<path d="M25925 11490 c-3 -5 -1 -10 4 -10 6 0 11 5 11 10 0 6 -2 10 -4 10 -3
0 -8 -4 -11 -10z"/>
<path d="M19208 10343 c28 -2 76 -2 105 0 28 2 5 3 -53 3 -58 0 -81 -1 -52 -3z"/>
<path d="M19375 10340 c-3 -5 0 -10 9 -10 8 0 23 -3 33 -7 17 -6 17 -6 1 10
-19 19 -34 22 -43 7z"/>
<path d="M18774 10275 c-28 -13 -27 -13 27 -14 31 -1 72 -4 90 -7 54 -11 26 7
-34 21 -43 10 -59 10 -83 0z"/>
<path d="M17343 10164 c-40 -19 -73 -39 -73 -43 0 -5 -11 -12 -25 -15 -14 -4
-25 -13 -25 -21 0 -17 18 -19 40 -5 12 8 12 10 -5 10 -17 1 -17 3 5 12 14 6
30 11 35 12 21 2 94 50 89 58 -3 4 4 8 15 8 11 0 23 5 26 10 10 17 -7 11 -82
-26z"/>
<path d="M20288 9363 c7 -3 16 -2 19 1 4 3 -2 6 -13 5 -11 0 -14 -3 -6 -6z"/>
<path d="M35901 31911 c-11 -11 -23 -41 -27 -67 -7 -50 0 -265 16 -499 19
-265 40 -600 40 -632 0 -30 -5 -35 -57 -59 -200 -91 -307 -163 -373 -251 -24
-31 -43 -63 -43 -70 0 -7 -4 -13 -8 -13 -11 0 -40 -67 -35 -82 2 -7 7 -26 10
-41 4 -15 10 -26 14 -23 12 7 31 -20 23 -33 -5 -7 -4 -29 1 -49 4 -20 17 -77
28 -127 11 -49 26 -95 35 -101 8 -6 15 -16 15 -21 0 -5 8 -18 19 -27 10 -9 21
-30 24 -45 3 -16 13 -36 23 -45 9 -9 14 -25 11 -36 -3 -13 0 -20 10 -20 8 0
11 -4 8 -10 -3 -6 4 -10 17 -10 19 0 20 -2 8 -11 -12 -8 -10 -9 9 -4 15 5 27
2 33 -6 7 -10 8 -8 5 8 -3 13 1 24 8 27 9 3 12 -2 10 -14 -3 -13 1 -17 11 -13
7 3 11 10 7 16 -3 6 -1 7 5 3 18 -11 92 45 166 125 74 80 129 182 147 270 16
85 12 347 -10 674 -11 165 -27 413 -36 550 -19 309 -45 603 -56 633 -10 27
-33 28 -58 3z m-451 -1642 c0 -6 -4 -7 -10 -4 -5 3 -10 11 -10 16 0 6 5 7 10
4 6 -3 10 -11 10 -16z"/>
<path d="M7777 30388 c-45 -56 -94 -148 -113 -217 -15 -50 -15 -65 0 -185 9
-72 25 -207 36 -301 25 -207 46 -374 65 -520 8 -60 15 -132 15 -160 0 -50 0
-50 -84 -131 -82 -79 -269 -211 -411 -291 -75 -42 -158 -83 -295 -143 -274
-122 -424 -229 -477 -340 -65 -137 -68 -319 -12 -800 27 -236 48 -514 69 -925
6 -121 18 -280 26 -354 8 -74 11 -138 7 -142 -5 -4 -35 -1 -68 6 -90 22 -245
19 -346 -6 -98 -24 -242 -90 -337 -153 -87 -58 -212 -187 -246 -254 -15 -29
-34 -84 -42 -122 -14 -62 -14 -74 0 -123 48 -165 240 -244 492 -203 343 56
598 229 696 475 20 50 23 73 22 211 0 85 -5 216 -12 290 -6 74 -18 214 -27
310 -8 96 -24 258 -35 360 -11 102 -27 255 -35 340 -9 85 -19 167 -22 181 -7
37 17 53 312 207 138 71 315 167 395 212 80 45 195 110 255 143 61 33 160 93
220 132 241 158 257 208 211 665 -36 366 -72 797 -96 1160 -25 384 -37 507
-55 585 -19 81 -42 135 -59 135 -8 0 -30 -19 -49 -42z m65 -1825 c6 -212 4
-223 -62 -302 -108 -129 -287 -244 -752 -484 -212 -108 -282 -153 -353 -226
-27 -28 -53 -51 -58 -51 -5 0 -8 57 -5 133 3 116 7 139 29 187 30 64 91 127
169 173 30 18 157 84 283 146 295 146 494 276 630 413 55 54 103 98 108 98 5
0 10 -39 11 -87z"/>
<path d="M34821 30194 c-81 -85 -110 -124 -93 -124 5 0 31 23 57 51 43 46 50
50 71 40 18 -8 24 -8 25 2 0 6 5 3 10 -8 7 -15 8 -8 4 25 -3 27 -2 40 3 32 7
-10 11 -4 16 18 14 71 5 68 -93 -36z"/>
<path d="M35400 30176 c0 -28 4 -45 10 -41 9 6 6 73 -5 83 -3 3 -5 -16 -5 -42z"/>
<path d="M34847 30120 c-3 -11 -1 -20 4 -20 5 0 9 9 9 20 0 11 -2 20 -4 20 -2
0 -6 -9 -9 -20z"/>
<path d="M34905 30000 c2 -74 8 -146 14 -160 11 -24 11 -24 5 5 -3 17 -10 89
-14 160 l-8 130 3 -135z"/>
<path d="M35382 30105 c0 -16 2 -22 5 -12 2 9 2 23 0 30 -3 6 -5 -1 -5 -18z"/>
<path d="M34695 30049 c-4 -6 -5 -12 -2 -15 2 -3 7 2 10 11 7 17 1 20 -8 4z"/>
<path d="M34675 30010 c-3 -5 -1 -10 4 -10 6 0 11 5 11 10 0 6 -2 10 -4 10 -3
0 -8 -4 -11 -10z"/>
<path d="M34656 29981 c-4 -7 -5 -15 -2 -18 9 -9 19 4 14 18 -4 11 -6 11 -12
0z"/>
<path d="M34626 29903 c-23 -66 -37 -190 -27 -238 11 -50 15 -20 11 74 -1 43
1 61 8 57 14 -8 26 55 17 84 -5 15 -4 20 4 16 6 -4 11 0 11 9 0 9 5 13 11 9 8
-4 8 0 0 15 -7 11 -13 21 -15 21 -2 0 -11 -21 -20 -47z"/>
<path d="M35610 29609 c0 -5 5 -7 10 -4 6 3 10 8 10 11 0 2 -4 4 -10 4 -5 0
-10 -5 -10 -11z"/>
<path d="M35658 29613 c6 -2 18 -2 25 0 6 3 1 5 -13 5 -14 0 -19 -2 -12 -5z"/>
<path d="M35035 29475 c4 -11 12 -39 17 -62 5 -24 12 -43 15 -43 3 0 2 12 -1
26 -5 19 -4 24 6 18 6 -4 1 10 -12 32 -28 47 -36 56 -25 29z"/>
<path d="M35087 29376 c3 -14 1 -26 -3 -26 -20 0 -34 -18 -28 -33 5 -15 8 -15
31 0 19 13 23 22 18 42 -9 35 -24 49 -18 17z"/>
<path d="M34616 29220 c3 -96 7 -177 9 -178 8 -9 46 11 55 29 9 16 6 24 -20
47 -29 27 -30 31 -31 118 0 50 -5 106 -10 125 -5 21 -6 -32 -3 -141z"/>
<path d="M35001 29296 c-9 -11 -9 -15 1 -19 16 -5 48 10 48 23 0 15 -36 12
-49 -4z"/>
<path d="M34956 29244 c-6 -15 -4 -15 11 -3 10 7 20 15 22 16 2 2 -3 3 -11 3
-9 0 -19 -7 -22 -16z"/>
<path d="M34901 29237 c8 -10 -39 -59 -50 -53 -4 3 -8 -1 -8 -9 0 -11 8 -10
38 6 47 24 53 33 31 50 -9 7 -14 10 -11 6z"/>
<path d="M34697 29089 c-4 -16 -2 -17 14 -8 23 12 23 15 5 22 -8 3 -16 -2 -19
-14z"/>
<path d="M34777 27043 c-3 -5 -1 -30 3 -58 4 -27 15 -135 24 -240 19 -212 44
-439 52 -471 8 -31 -14 -35 -104 -23 -139 20 -383 -6 -530 -56 -168 -58 -301
-143 -443 -284 -210 -210 -321 -431 -323 -642 -1 -93 0 -98 42 -182 56 -114
130 -177 258 -221 473 -163 1103 121 1323 596 52 111 66 174 64 288 -2 113
-10 179 -88 755 -49 356 -69 407 -198 501 -62 45 -72 50 -80 37z"/>
<path d="M37812 23932 c-10 -10 -24 -48 -31 -83 -19 -96 -79 -275 -98 -290
-12 -11 -82 -15 -302 -20 -261 -5 -292 -8 -350 -28 -218 -76 -232 -106 -346
-770 -65 -380 -88 -501 -155 -821 -59 -283 -88 -442 -83 -452 2 -5 15 -8 29
-8 22 0 24 4 24 48 0 89 39 332 66 407 28 80 56 114 95 117 29 2 25 -11 103
368 l42 205 89 8 c166 14 340 38 410 56 131 34 264 149 336 293 50 98 102 295
204 766 39 184 42 207 19 216 -24 9 -33 7 -52 -12z"/>
<path d="M7864 23713 c-33 -33 -101 -199 -295 -717 -107 -285 -199 -521 -205
-523 -7 -2 -41 9 -75 25 -178 83 -342 115 -465 92 -141 -27 -225 -71 -331
-173 -141 -136 -211 -270 -337 -643 -46 -137 -117 -337 -158 -444 -41 -107
-96 -253 -123 -325 -160 -435 -291 -661 -425 -730 -33 -17 -32 -17 -230 25
-118 25 -339 28 -413 5 -119 -36 -239 -136 -253 -211 -18 -96 45 -234 127
-278 148 -81 300 -92 494 -35 224 65 419 249 588 554 79 141 227 483 312 720
25 72 62 171 80 220 18 50 37 102 40 118 4 15 13 27 20 27 7 0 43 -18 81 -40
203 -116 375 -123 599 -25 64 28 162 118 215 197 72 109 210 408 392 853 61
150 122 307 283 735 24 63 67 176 95 250 64 168 92 282 80 316 -8 19 -17 24
-44 24 -20 0 -42 -8 -52 -17z m-964 -1659 c37 -16 77 -45 105 -75 77 -82 82
-124 31 -232 -43 -94 -90 -146 -179 -201 -97 -60 -168 -79 -272 -74 -69 4 -89
9 -135 36 -149 87 -192 173 -141 287 62 140 219 259 381 289 55 10 152 -4 210
-30z"/>
<path d="M7263 18750 c-32 -13 -58 -59 -209 -364 -74 -149 -140 -275 -147
-280 -9 -5 -39 10 -92 46 -190 129 -398 169 -576 110 -255 -84 -400 -354 -279
-520 79 -110 223 -182 403 -202 199 -23 392 31 496 139 64 67 102 135 181 323
37 90 86 204 108 253 188 428 198 458 166 489 -17 18 -20 18 -51 6z"/>
<path d="M35243 18714 c-15 -16 -16 -24 -4 -24 8 0 24 30 19 35 -2 2 -9 -3
-15 -11z"/>
<path d="M35208 18673 c-16 -4 -34 -50 -23 -61 3 -3 5 2 5 11 0 10 4 17 10 17
5 0 14 9 20 20 6 11 9 19 8 19 -2 -1 -10 -3 -20 -6z"/>
<path d="M8557 17668 c-11 -8 -29 -59 -47 -133 -17 -66 -35 -124 -40 -129 -5
-5 -31 -2 -66 9 -84 26 -223 17 -298 -19 -67 -33 -119 -91 -147 -165 -18 -47
-22 -90 -29 -276 -14 -345 -66 -746 -103 -783 -12 -12 -23 -12 -71 -1 -117 26
-268 -17 -361 -102 -101 -93 -98 -189 7 -249 37 -22 55 -25 133 -24 79 0 98 4
149 30 115 56 205 184 241 339 18 75 52 360 60 500 4 55 8 110 11 122 l4 23
51 -20 c103 -41 266 -18 348 48 61 50 80 104 118 336 18 116 40 252 48 301 8
50 19 106 25 125 21 71 8 98 -33 68z m-201 -534 c41 -20 51 -49 34 -108 -31
-112 -88 -150 -222 -151 -77 0 -89 3 -111 23 -32 30 -41 80 -26 133 15 50 54
81 129 104 30 9 60 19 65 21 19 7 97 -6 131 -22z"/>
<path d="M35712 17605 c-22 -18 -32 -22 -36 -13 -3 7 -3 2 0 -12 4 -14 11 -26
15 -28 5 -2 9 -10 9 -17 0 -7 4 -15 8 -17 5 -1 15 -25 24 -51 12 -38 13 -50 3
-53 -7 -3 -10 -15 -8 -29 3 -14 -2 -30 -14 -42 -19 -20 -27 -53 -13 -53 5 0
10 10 12 23 2 12 9 21 15 20 6 -1 14 14 18 34 3 20 13 43 21 51 10 9 13 24 10
38 -4 16 -2 24 6 24 15 0 48 84 48 120 0 16 -4 20 -15 16 -8 -3 -15 -1 -15 4
0 20 -59 10 -88 -15z"/>
<path d="M34373 17588 c-13 -6 -23 -15 -23 -20 0 -14 16 -9 35 12 20 22 19 23
-12 8z"/>
<path d="M35650 17540 c-1 -23 -2 -23 -10 -5 -7 16 -9 17 -9 3 -1 -9 4 -20 9
-23 12 -7 24 19 17 37 -3 7 -6 2 -7 -12z"/>
<path d="M34316 17539 c2 -4 -8 -10 -23 -14 -15 -3 -40 -22 -56 -40 -17 -20
-34 -32 -43 -28 -8 3 -14 -1 -14 -10 0 -8 -10 -17 -23 -21 -13 -3 -36 -17 -51
-31 -16 -14 -51 -39 -80 -56 -69 -40 -96 -64 -96 -86 0 -13 -2 -15 -9 -5 -7
11 -9 10 -15 -3 -4 -11 -12 -14 -26 -10 -11 4 -20 2 -20 -4 0 -6 -7 -11 -15
-11 -9 0 -18 -6 -21 -14 -3 -8 -17 -17 -31 -21 -25 -6 -83 -45 -74 -48 13 -5
-10 -47 -24 -47 -12 0 -15 -5 -11 -16 3 -9 6 -18 6 -20 0 -2 7 -4 15 -4 8 0
15 9 15 20 0 14 7 20 23 20 23 1 77 42 77 60 0 5 4 10 9 10 22 0 311 215 311
232 0 4 5 8 12 8 7 0 21 9 33 20 47 45 79 70 92 70 7 0 16 7 19 15 4 8 10 15
16 15 5 0 16 6 24 14 12 13 12 15 -5 13 -11 0 -18 -4 -15 -8z"/>
<path d="M35612 17500 c0 -14 2 -19 5 -12 2 6 2 18 0 25 -3 6 -5 1 -5 -13z"/>
<path d="M35562 17488 c6 -18 28 -21 28 -4 0 9 -7 16 -16 16 -9 0 -14 -5 -12
-12z"/>
<path d="M35545 17460 c-3 -5 0 -17 8 -25 13 -12 16 -12 20 0 7 17 -18 41 -28
25z"/>
<path d="M35514 17383 c-9 -21 -20 -47 -24 -58 -4 -11 -18 -42 -30 -70 -28
-62 -80 -202 -80 -215 0 -5 9 -2 20 7 11 10 20 25 20 35 0 10 5 18 10 18 6 0
10 6 10 14 0 7 7 19 15 26 8 6 14 15 13 18 -3 29 4 72 12 67 12 -7 24 38 17
65 -3 13 0 20 9 20 7 0 16 12 19 28 3 15 10 39 14 55 14 40 -5 33 -25 -10z"/>
<path d="M3171 17204 c0 -11 3 -14 6 -6 3 7 2 16 -1 19 -3 4 -6 -2 -5 -13z"/>
<path d="M3914 17185 c-10 -24 12 -42 34 -29 24 16 21 38 -6 42 -13 2 -25 -3
-28 -13z"/>
<path d="M35613 17116 c0 -18 3 -24 9 -18 7 7 7 16 0 28 -8 14 -9 13 -9 -10z"/>
<path d="M33624 17036 c-3 -8 -17 -17 -32 -22 l-27 -7 25 -7 c20 -6 15 -8 -25
-10 -38 -1 -45 -4 -30 -10 17 -7 15 -9 -13 -9 -19 -1 -35 -7 -38 -16 -4 -8
-12 -15 -20 -15 -8 0 -14 -4 -14 -10 0 -5 -7 -10 -15 -10 -8 0 -15 -5 -15 -11
0 -6 -6 -9 -14 -6 -8 3 -22 -3 -32 -14 -9 -10 -27 -19 -40 -19 -13 0 -39 -13
-57 -30 -19 -16 -40 -30 -46 -30 -6 0 -11 -3 -11 -8 0 -4 -16 -16 -35 -26 -19
-11 -35 -25 -35 -33 0 -8 -4 -12 -9 -9 -4 3 -46 -20 -92 -51 -102 -68 -140
-99 -132 -107 4 -3 -1 -6 -11 -6 -15 0 -100 -51 -116 -69 -3 -3 -26 -17 -52
-31 -27 -13 -48 -28 -48 -32 0 -5 -8 -8 -17 -8 -15 0 -16 -2 -3 -10 12 -8 10
-10 -8 -10 -13 0 -43 -13 -67 -30 -24 -16 -50 -30 -57 -30 -10 0 -9 -3 2 -10
12 -8 9 -10 -12 -10 -14 0 -28 -4 -30 -8 -3 -8 -81 -54 -161 -94 -21 -10 -35
-23 -32 -27 5 -9 -25 -22 -55 -25 -8 0 -14 -6 -13 -12 1 -7 -11 -17 -27 -24
-17 -7 -30 -16 -30 -20 0 -4 -11 -11 -25 -14 -14 -4 -25 -11 -25 -17 0 -6 20
1 44 15 39 23 128 69 371 194 39 20 73 41 77 47 4 5 8 6 8 2 0 -8 16 -1 95 42
22 12 70 37 106 55 36 19 71 41 78 50 8 9 18 16 22 16 5 0 43 23 85 50 41 28
77 50 80 50 2 0 37 22 77 49 39 26 95 62 122 79 77 48 138 91 227 160 44 34
90 68 101 73 16 9 17 13 6 20 -13 8 -5 13 15 10 14 -3 36 20 36 38 0 13 -2 13
-9 2 -6 -9 -11 -10 -15 -2 -10 15 -26 14 -32 -3z"/>
<path d="M3935 16911 c-18 -21 -27 -83 -12 -97 13 -13 89 -5 120 13 63 37 41
93 -39 100 -41 4 -52 2 -69 -16z"/>
<path d="M35481 16804 c0 -11 3 -14 6 -6 3 7 2 16 -1 19 -3 4 -6 -2 -5 -13z"/>
<path d="M35562 16508 c-14 -18 -44 -88 -37 -88 10 0 57 79 53 91 -3 8 -7 7
-16 -3z"/>
<path d="M36084 16356 c-43 -19 -104 -75 -104 -95 0 -34 33 -51 99 -51 60 0
65 2 102 39 25 25 39 48 39 64 0 50 -69 72 -136 43z m22 -81 c-23 -17 -36 -19
-36 -6 0 11 18 19 40 20 11 0 10 -3 -4 -14z"/>
<path d="M5241 16295 c7 -11 34 -45 59 -76 25 -31 52 -67 60 -79 8 -13 38 -51
65 -84 28 -34 82 -101 120 -151 38 -49 88 -113 111 -142 93 -115 299 -446 319
-513 9 -30 54 -85 69 -85 7 0 10 -15 8 -38 -3 -32 1 -42 29 -65 81 -67 128
-124 155 -189 67 -157 190 -393 256 -490 122 -179 273 -285 463 -324 49 -10
119 -27 155 -38 81 -26 96 -26 47 0 -56 30 -304 265 -489 466 -164 177 -298
337 -298 354 0 5 -6 9 -14 9 -18 0 -131 118 -130 136 1 7 -2 11 -7 8 -14 -8
-38 21 -29 35 5 9 9 6 13 -9 3 -12 10 -19 15 -16 5 3 15 -1 22 -9 7 -8 16 -15
20 -15 12 0 86 -74 99 -98 7 -13 25 -31 40 -40 31 -19 94 -69 155 -123 23 -20
95 -76 161 -126 116 -87 177 -147 389 -377 54 -59 122 -125 150 -146 79 -60
345 -201 676 -358 52 -24 172 -88 265 -141 233 -133 372 -199 625 -297 63 -24
126 -49 140 -55 61 -27 292 -108 380 -134 56 -16 278 -55 315 -55 17 0 16 2
-6 14 -14 7 -38 16 -53 20 -15 4 -85 34 -154 67 -70 34 -176 83 -237 109 -60
27 -170 78 -243 114 -73 36 -135 66 -137 66 -7 0 -258 149 -366 218 -91 57
-177 125 -129 101 14 -6 44 -25 68 -41 23 -16 42 -26 42 -22 0 4 11 -6 25 -22
14 -16 25 -23 25 -16 0 19 97 10 141 -12 18 -9 38 -16 45 -16 7 0 11 -8 9 -20
-2 -11 0 -20 6 -20 5 0 9 5 9 10 0 17 29 11 50 -10 12 -12 18 -26 14 -32 -5
-7 4 -9 31 -4 25 5 35 4 30 -3 -3 -7 3 -11 15 -11 12 0 18 -4 15 -10 -3 -5 2
-10 12 -10 11 0 23 -4 28 -9 10 -9 105 -44 230 -85 240 -79 308 -101 375 -117
100 -25 130 -25 130 1 0 10 -8 24 -17 29 -10 6 -14 11 -9 11 5 0 -1 11 -14 25
-18 19 -34 25 -64 25 -63 0 -198 26 -311 61 -35 10 -37 13 -20 20 14 7 10 8
-16 4 -28 -4 -38 -2 -43 10 -3 9 -10 13 -16 10 -10 -6 -37 41 -29 50 3 2 21 0
40 -5 18 -5 59 -13 89 -19 30 -6 87 -18 125 -27 39 -9 95 -19 125 -23 30 -3
60 -10 67 -14 6 -4 14 -3 18 3 3 5 -2 10 -12 10 -11 0 -23 4 -28 9 -6 5 -41
16 -80 26 -38 9 -106 27 -150 40 -44 14 -152 43 -240 65 -201 52 -264 70 -450
130 -145 46 -208 62 -308 75 -33 4 -157 62 -430 199 -342 172 -449 230 -622
333 -139 83 -196 112 -317 160 -45 17 -164 97 -230 153 l-29 25 30 11 c24 10
29 9 24 -2 -4 -11 5 -14 35 -14 46 0 62 -13 35 -29 -14 -8 -15 -10 -3 -11 8 0
28 -7 44 -15 15 -8 40 -17 54 -20 15 -2 38 -13 52 -23 54 -40 91 -53 144 -51
36 2 60 -3 77 -14 13 -9 29 -17 36 -17 7 0 13 -5 13 -11 0 -6 9 -8 23 -4 17 5
19 4 7 -4 -13 -9 -13 -11 2 -11 11 0 15 -5 12 -15 -4 -9 0 -15 10 -15 9 0 28
-13 43 -29 24 -25 84 -49 97 -39 3 2 11 -5 18 -15 8 -10 18 -17 23 -16 6 1 25
-2 43 -6 32 -8 42 -20 21 -27 -7 -2 5 -4 25 -5 24 -1 45 -9 57 -22 11 -12 25
-21 31 -21 11 0 137 -55 233 -102 81 -40 234 -99 259 -101 12 0 24 -5 27 -9 9
-14 123 -39 149 -33 18 4 21 3 11 -4 -19 -12 48 -26 79 -16 14 4 20 3 17 -2
-9 -14 98 -36 168 -35 45 1 56 -1 45 -9 -11 -8 -5 -9 25 -5 22 3 51 6 65 6 24
1 24 1 6 15 -19 15 -19 15 3 15 14 0 20 4 15 11 -5 8 -2 9 11 1 18 -9 77 4
127 29 10 5 20 5 23 -1 3 -6 1 -10 -4 -10 -6 0 -11 -4 -11 -8 0 -4 17 -7 38
-5 29 2 33 1 17 -6 -17 -8 -15 -10 13 -10 21 -1 32 4 32 13 0 15 -21 26 -47
26 -9 0 -21 7 -27 16 -6 8 -28 16 -49 17 -23 1 -37 7 -37 15 0 7 -4 10 -10 7
-5 -3 -16 -3 -22 2 -7 4 -19 8 -26 9 -20 3 -42 25 -42 40 0 8 -7 14 -16 14
-14 0 -14 -3 -4 -15 16 -20 6 -19 -25 1 -18 12 -25 13 -25 4 0 -10 -3 -10 -15
0 -8 7 -15 9 -15 5 0 -4 -6 -3 -13 3 -8 7 -18 7 -27 2 -22 -14 -28 -12 -35 9
-3 11 -20 23 -38 27 -18 4 -35 9 -39 10 -5 1 -19 2 -33 3 -14 0 -25 5 -25 11
0 5 8 7 18 3 10 -4 13 -3 7 3 -5 5 -12 12 -15 17 -4 4 -17 -3 -29 -14 -23 -22
-23 -22 -17 -1 7 22 -8 37 -38 37 -11 0 -21 5 -23 11 -2 7 6 10 24 6 l28 -5
-23 23 c-13 12 -26 19 -29 16 -3 -3 -11 -2 -17 2 -6 5 -31 14 -56 21 -25 7
-53 17 -62 22 -10 5 -59 23 -110 39 -51 17 -102 35 -113 40 -11 5 -62 23 -114
41 -52 17 -106 38 -120 45 -14 8 -30 14 -36 14 -5 0 -46 15 -90 34 -44 19
-134 58 -200 87 -186 80 -666 320 -800 399 -246 146 -333 212 -541 407 -111
103 -246 238 -300 299 -206 231 -230 259 -282 323 -104 126 -240 278 -211 236z
m869 -1185 c9 -16 8 -20 -5 -20 -8 0 -15 9 -15 20 0 11 2 20 5 20 2 0 9 -9 15
-20z m2083 -847 c-7 -2 -19 -2 -25 0 -7 3 -2 5 12 5 14 0 19 -2 13 -5z m94
-59 c-3 -3 -12 -4 -19 -1 -8 3 -5 6 6 6 11 1 17 -2 13 -5z m220 -60 c-3 -3
-12 -4 -19 -1 -8 3 -5 6 6 6 11 1 17 -2 13 -5z m0 -20 c-3 -3 -12 -4 -19 -1
-8 3 -5 6 6 6 11 1 17 -2 13 -5z m6 -31 c-7 -2 -19 -2 -25 0 -7 3 -2 5 12 5
14 0 19 -2 13 -5z m327 -68 c0 -8 -9 -15 -20 -15 -13 0 -18 5 -14 15 4 8 12
15 20 15 8 0 14 -7 14 -15z m-347 -62 c-7 -2 -19 -2 -25 0 -7 3 -2 5 12 5 14
0 19 -2 13 -5z m-212 -190 c13 -16 12 -17 -3 -4 -17 13 -22 21 -14 21 2 0 10
-8 17 -17z m787 -245 c3 -13 -3 -18 -22 -18 -26 0 -38 19 -13 21 6 0 3 4 -8 9
-17 8 -15 9 10 7 19 -1 31 -8 33 -19z"/>
<path d="M36542 16249 c-59 -38 -75 -111 -27 -123 64 -16 155 40 155 96 0 50
-69 64 -128 27z"/>
<path d="M34786 16138 c-45 -25 -172 -173 -157 -183 28 -17 144 90 168 155 14
40 14 42 -11 28z"/>
<path d="M35650 15976 c-145 -152 -166 -175 -207 -234 -28 -38 -13 -53 19 -20
160 164 348 380 348 399 0 20 -22 0 -160 -145z"/>
<path d="M36200 15994 c-19 -8 -63 -33 -98 -56 -52 -34 -60 -43 -50 -55 10
-12 26 -14 70 -9 81 8 120 27 142 68 33 62 7 83 -64 52z"/>
<path d="M34780 15879 c-47 -4 -122 -7 -167 -8 l-82 -1 -57 -57 c-31 -32 -120
-137 -197 -233 -161 -202 -210 -259 -400 -467 -121 -132 -196 -206 -437 -427
-25 -23 -97 -84 -160 -136 -63 -52 -117 -97 -120 -100 -3 -3 -26 -22 -52 -43
-26 -21 -53 -43 -60 -50 -8 -7 -36 -32 -63 -56 -89 -78 -175 -164 -171 -169 3
-2 27 9 53 26 26 17 80 50 118 73 39 23 84 50 100 60 68 43 232 149 260 169
32 22 47 33 495 351 270 193 504 372 605 465 22 20 103 91 180 158 160 138
295 266 295 278 0 4 -7 8 -15 8 -12 0 -14 4 -7 17 6 9 6 24 2 32 -26 53 -31
70 -26 94 2 15 2 26 -2 25 -4 0 -45 -4 -92 -9z"/>
<path d="M36920 15703 c-15 -4 -82 -85 -75 -91 11 -11 117 76 109 90 -5 8 -9
9 -34 1z"/>
<path d="M36728 15620 c-16 -15 -28 -33 -28 -39 0 -14 52 -14 85 1 32 14 32
27 0 20 -24 -4 -30 3 -26 36 2 15 1 15 -31 -18z"/>
<path d="M35516 15363 c-6 -14 -5 -15 5 -6 7 7 10 15 7 18 -3 3 -9 -2 -12 -12z"/>
<path d="M36051 15143 c-48 -49 -102 -101 -120 -116 -18 -15 -32 -30 -29 -32
2 -3 20 10 39 28 19 17 68 62 108 99 73 67 109 108 95 108 -4 0 -46 -39 -93
-87z"/>
<path d="M8410 14226 c0 -2 7 -6 15 -10 8 -3 15 -1 15 4 0 6 -7 10 -15 10 -8
0 -15 -2 -15 -4z"/>
<path d="M8448 14193 c7 -3 16 -2 19 1 4 3 -2 6 -13 5 -11 0 -14 -3 -6 -6z"/>
<path d="M7200 13991 c0 -4 28 -20 63 -35 109 -50 261 -127 277 -140 21 -19
123 -66 129 -60 8 8 -11 20 -114 75 -247 130 -355 179 -355 160z"/>
<path d="M8811 13974 c0 -11 3 -14 6 -6 3 7 2 16 -1 19 -3 4 -6 -2 -5 -13z"/>
<path d="M8830 13975 c0 -8 5 -15 10 -15 6 0 10 7 10 15 0 8 -4 15 -10 15 -5
0 -10 -7 -10 -15z"/>
<path d="M8860 13958 c0 -4 16 -8 35 -8 19 0 35 2 35 4 0 2 -16 6 -35 8 -19 2
-35 0 -35 -4z"/>
<path d="M9221 13956 c9 -9 69 -14 69 -5 0 5 -16 9 -37 9 -20 0 -34 -2 -32 -4z"/>
<path d="M8738 13513 c7 -3 16 -2 19 1 4 3 -2 6 -13 5 -11 0 -14 -3 -6 -6z"/>
<path d="M32091 13163 c-30 -8 -69 -26 -86 -41 -16 -15 -53 -38 -80 -51 -28
-13 -63 -31 -78 -39 -16 -8 -41 -18 -55 -23 -26 -9 -26 -9 3 -3 17 3 38 5 48
5 9 0 15 5 11 11 -4 6 1 8 15 3 12 -4 21 -2 21 4 0 6 3 10 8 9 11 -3 56 14 63
23 3 5 44 26 91 47 47 21 97 46 109 55 22 15 22 16 4 16 -11 -1 -44 -7 -74
-16z"/>
<path d="M31725 12980 c-3 -6 4 -9 19 -8 13 1 22 6 20 10 -7 11 -32 10 -39 -2z"/>
<path d="M31208 12663 c6 -2 18 -2 25 0 6 3 1 5 -13 5 -14 0 -19 -2 -12 -5z"/>
<path d="M31128 12643 c6 -2 18 -2 25 0 6 3 1 5 -13 5 -14 0 -19 -2 -12 -5z"/>
<path d="M31063 12623 c9 -2 23 -2 30 0 6 3 -1 5 -18 5 -16 0 -22 -2 -12 -5z"/>
<path d="M30933 12583 c9 -2 23 -2 30 0 6 3 -1 5 -18 5 -16 0 -22 -2 -12 -5z"/>
<path d="M30668 12503 c7 -3 16 -2 19 1 4 3 -2 6 -13 5 -11 0 -14 -3 -6 -6z"/>
<path d="M6690 9156 c9 -26 32 -67 81 -151 36 -62 100 -145 121 -156 10 -5 18
-14 18 -20 0 -6 -6 -7 -12 -3 -7 5 0 -6 17 -24 16 -18 31 -32 32 -32 8 0 1 20
-9 32 -14 15 -34 47 -57 92 -10 21 -11 31 -3 34 11 3 9 8 -25 47 -20 21 -15
27 9 14 24 -13 28 -16 79 -59 25 -20 43 -28 55 -23 12 4 15 3 10 -5 -4 -7 -3
-12 3 -12 5 0 17 -7 25 -16 9 -8 16 -11 16 -5 0 5 11 0 24 -12 26 -24 86 -61
86 -53 0 3 -71 56 -158 120 -86 63 -187 141 -222 173 -36 32 -73 64 -83 72
-16 13 -17 12 -7 -13z m140 -148 c0 -6 -6 -5 -15 2 -8 7 -15 14 -15 16 0 2 7
1 15 -2 8 -4 15 -11 15 -16z"/>
<path d="M30180 9050 c8 -5 13 -10 10 -11 -3 0 -15 -2 -28 -3 -13 -2 -30 -10
-39 -19 -15 -15 -15 -16 5 -14 12 1 22 7 22 14 0 7 5 13 11 13 5 0 7 -6 3 -12
-4 -7 2 -5 14 6 22 19 21 36 -1 36 -7 0 -6 -4 3 -10z"/>
<path d="M30041 8934 c0 -11 3 -14 6 -6 3 7 2 16 -1 19 -3 4 -6 -2 -5 -13z"/>
<path d="M7207 8769 c7 -7 15 -10 18 -7 3 3 -2 9 -12 12 -14 6 -15 5 -6 -5z"/>
<path d="M7325 8690 c3 -5 11 -10 16 -10 6 0 7 5 4 10 -3 6 -11 10 -16 10 -6
0 -7 -4 -4 -10z"/>
</g>
</svg>
